<svg xmlns="http://www.w3.org/2000/svg" xmlns:xlink="http://www.w3.org/1999/xlink" viewBox="0 0 515.89 88.64"><defs><style>.cls-1{opacity:0.25;}.cls-2{fill:url(#Unbenannter_Verlauf_137);}.cls-3{fill:url(#Unbenannter_Verlauf_2);}.cls-4{fill:url(#Unbenannter_Verlauf_233);}.cls-5{fill:url(#Unbenannter_Verlauf_7);}.cls-6{font-size:50.44px;fill:#494949;font-family:Optimus;}.cls-7{opacity:0.15;}</style><linearGradient id="Unbenannter_Verlauf_137" x1="257.97" y1="8.17" x2="257.97" y2="75.25" gradientUnits="userSpaceOnUse"><stop offset="0" stop-color="#777"/><stop offset="0.15" stop-color="#545454"/><stop offset="0.43" stop-color="#575757"/><stop offset="0.64" stop-color="#616161"/><stop offset="0.83" stop-color="#717171"/><stop offset="1" stop-color="#878787"/><stop offset="1" stop-color="#7a7a7a"/><stop offset="1" stop-color="#686868"/></linearGradient><linearGradient id="Unbenannter_Verlauf_2" x1="257.97" y1="83.25" x2="257.97" y2="0.17" gradientUnits="userSpaceOnUse"><stop offset="0" stop-color="#777"/><stop offset="0.16" stop-color="#545454"/><stop offset="0.36" stop-color="#585858"/><stop offset="0.54" stop-color="#636363"/><stop offset="0.72" stop-color="#767676"/><stop offset="0.84" stop-color="#878787"/><stop offset="0.92" stop-color="#7a7a7a"/><stop offset="1" stop-color="#686868"/></linearGradient><linearGradient id="Unbenannter_Verlauf_233" x1="206.73" y1="8.17" x2="206.73" y2="75.25" gradientUnits="userSpaceOnUse"><stop offset="0" stop-color="#b4b4b4"/><stop offset="0.15" stop-color="#919191"/><stop offset="0.43" stop-color="#949494"/><stop offset="0.64" stop-color="#9e9e9e"/><stop offset="0.83" stop-color="#aeaeae"/><stop offset="1" stop-color="#c4c4c4"/><stop offset="1" stop-color="#b7b7b7"/><stop offset="1" stop-color="#a5a5a5"/></linearGradient><linearGradient id="Unbenannter_Verlauf_7" x1="206.73" y1="83.25" x2="206.73" y2="0.17" gradientUnits="userSpaceOnUse"><stop offset="0" stop-color="#b4b4b4"/><stop offset="0.16" stop-color="#919191"/><stop offset="0.36" stop-color="#959595"/><stop offset="0.54" stop-color="#a0a0a0"/><stop offset="0.72" stop-color="#b3b3b3"/><stop offset="0.84" stop-color="#c4c4c4"/><stop offset="0.92" stop-color="#b7b7b7"/><stop offset="1" stop-color="#a5a5a5"/></linearGradient></defs><title>input</title><g id="menu"><g class="cls-1"><path d="M474.09,7.9H41.84A40.22,40.22,0,0,0,14.71,18.4c-1,.87-1.87,1.79-2.74,2.74A40.49,40.49,0,0,0,1.47,48.27h0A40.41,40.41,0,0,0,41.84,88.64H474.09a40.37,40.37,0,1,0,0-80.74Z"/></g><rect class="cls-2" x="8.3" y="8.17" width="499.33" height="67.07" rx="33.54"/><path class="cls-3" d="M474.09,8.17a33.54,33.54,0,0,1,33.54,33.54h0a33.54,33.54,0,0,1-33.54,33.54H41.84A33.54,33.54,0,0,1,8.3,41.71h0A33.54,33.54,0,0,1,41.84,8.17H474.09m0-8H41.84a41.54,41.54,0,0,0,0,83.08H474.09a41.54,41.54,0,1,0,0-83.08Z"/><path class="cls-4" d="M405.15,75.25H41.84A33.54,33.54,0,0,1,8.3,41.71h0A33.54,33.54,0,0,1,41.84,8.17H405.15Z"/><path class="cls-5" d="M405.15,8.17V75.25H41.84A33.54,33.54,0,0,1,8.3,41.71h0A33.54,33.54,0,0,1,41.84,8.17H405.15m8-8H41.84a41.54,41.54,0,0,0,0,83.08H413.15V.17Z"/><text class="cls-6" transform="translate(35.44 57.41)">Points to win: </text><g class="cls-7"><rect x="413.2" y="0.14" width="8.2" height="80.71"/></g></g></svg>