<svg xmlns="http://www.w3.org/2000/svg" xmlns:xlink="http://www.w3.org/1999/xlink" viewBox="0 0 738.63 129.7"><defs><style>.cls-1{opacity:0.25;}.cls-2{fill:url(#Unbenannter_Verlauf_4);}.cls-3{fill:url(#Unbenannter_Verlauf_4-2);}.cls-4{fill:url(#Unbenannter_Verlauf_5);}.cls-5{fill:url(#Unbenannter_Verlauf_5-2);}.cls-6{font-size:49.58px;fill:#00564e;font-family:Optimus;}.cls-7{opacity:0.15;}</style><linearGradient id="Unbenannter_Verlauf_4" x1="369.46" y1="8.04" x2="369.46" y2="112.68" gradientUnits="userSpaceOnUse"><stop offset="0" stop-color="#00948f"/><stop offset="0.16" stop-color="#00716d"/><stop offset="0.36" stop-color="#007571"/><stop offset="0.54" stop-color="#00807b"/><stop offset="0.72" stop-color="#00938d"/><stop offset="0.84" stop-color="#00a49e"/><stop offset="0.92" stop-color="#009791"/><stop offset="1" stop-color="#008580"/></linearGradient><linearGradient id="Unbenannter_Verlauf_4-2" x1="369.46" y1="120.68" x2="369.46" y2="0.04" xlink:href="#Unbenannter_Verlauf_4"/><linearGradient id="Unbenannter_Verlauf_5" x1="137.49" y1="8.04" x2="137.49" y2="112.68" gradientUnits="userSpaceOnUse"><stop offset="0" stop-color="#8ab2b1"/><stop offset="0.16" stop-color="#6e8f8e"/><stop offset="0.36" stop-color="#719392"/><stop offset="0.54" stop-color="#7a9e9d"/><stop offset="0.72" stop-color="#88b1b0"/><stop offset="0.84" stop-color="#96c2c1"/><stop offset="0.92" stop-color="#8cb5b4"/><stop offset="1" stop-color="#7ea3a2"/></linearGradient><linearGradient id="Unbenannter_Verlauf_5-2" x1="137.49" y1="120.68" x2="137.49" y2="0.04" xlink:href="#Unbenannter_Verlauf_5"/></defs><title>input</title><g id="menu"><g class="cls-1"><path d="M678,11.63H60.9a59,59,0,1,0,0,118.07H678a59,59,0,1,0,0-118.07Z"/></g><rect class="cls-2" x="8.58" y="8.04" width="721.77" height="104.64" rx="52.32"/><path class="cls-3" d="M678,8a52.32,52.32,0,0,1,52.32,52.32h0A52.33,52.33,0,0,1,678,112.68H60.9A52.32,52.32,0,0,1,8.58,60.36h0A52.31,52.31,0,0,1,60.9,8H678m0-8H60.9a60.32,60.32,0,0,0,0,120.64H678A60.32,60.32,0,1,0,678,0Z"/><path class="cls-4" d="M266.4,112.68H60.9A52.32,52.32,0,0,1,8.58,60.36h0A52.31,52.31,0,0,1,60.9,8H266.4Z"/><path class="cls-5" d="M266.4,8V112.68H60.9A52.32,52.32,0,0,1,8.58,60.36h0A52.31,52.31,0,0,1,60.9,8H266.4m8-8H60.9a60.32,60.32,0,0,0,0,120.64H274.4V0Z"/><text class="cls-6" transform="translate(35.25 75.78)">Player 1:</text><g class="cls-7"><rect x="273.11" y="1.32" width="13.19" height="118.07"/></g></g></svg>