<svg xmlns="http://www.w3.org/2000/svg" xmlns:xlink="http://www.w3.org/1999/xlink" viewBox="0 0 739.25 178.4"><defs><style>.cls-1{fill:url(#Unbenannter_Verlauf_3);}.cls-2{fill:url(#Unbenannter_Verlauf_3-2);}.cls-3{opacity:0.25;}.cls-4{fill:url(#Unbenannter_Verlauf_287);}.cls-5{fill:url(#Unbenannter_Verlauf_287-2);}.cls-6{fill:url(#Unbenannter_Verlauf_3-3);}.cls-7{fill:url(#Unbenannter_Verlauf_3-4);}.cls-8{font-size:49.58px;}.cls-8,.cls-9{fill:#822f19;font-family:Optimus;}.cls-9{font-size:32.44px;}.cls-10{opacity:0.15;}.cls-11{fill:none;stroke:#822f19;stroke-miterlimit:10;stroke-width:5px;}</style><linearGradient id="Unbenannter_Verlauf_3" x1="554.16" y1="108.2" x2="554.16" y2="165.51" gradientUnits="userSpaceOnUse"><stop offset="0" stop-color="#e88767"/><stop offset="0.16" stop-color="#c57257"/><stop offset="0.36" stop-color="#c97459"/><stop offset="0.54" stop-color="#d47b5d"/><stop offset="0.72" stop-color="#e78766"/><stop offset="0.84" stop-color="#f8916d"/><stop offset="0.92" stop-color="#eb8968"/><stop offset="1" stop-color="#d97e62"/></linearGradient><linearGradient id="Unbenannter_Verlauf_3-2" x1="554.16" y1="173.51" x2="554.16" y2="100.2" xlink:href="#Unbenannter_Verlauf_3"/><linearGradient id="Unbenannter_Verlauf_287" x1="369.55" y1="8.09" x2="369.55" y2="112.73" gradientUnits="userSpaceOnUse"><stop offset="0" stop-color="#bc4e29"/><stop offset="0.16" stop-color="#993f21"/><stop offset="0.36" stop-color="#9d4122"/><stop offset="0.54" stop-color="#a84624"/><stop offset="0.72" stop-color="#bb4e28"/><stop offset="0.84" stop-color="#cc562c"/><stop offset="0.92" stop-color="#bf502a"/><stop offset="1" stop-color="#ad4727"/></linearGradient><linearGradient id="Unbenannter_Verlauf_287-2" x1="369.55" y1="120.73" x2="369.55" y2="0.09" xlink:href="#Unbenannter_Verlauf_287"/><linearGradient id="Unbenannter_Verlauf_3-3" x1="137.58" y1="8.09" x2="137.58" y2="112.73" xlink:href="#Unbenannter_Verlauf_3"/><linearGradient id="Unbenannter_Verlauf_3-4" x1="137.58" y1="120.73" x2="137.58" y2="0.09" xlink:href="#Unbenannter_Verlauf_3"/></defs><title>input</title><g id="menu"><path class="cls-1" d="M594.61,165.51H513.72a19.07,19.07,0,0,1-19.07-19.07V108.2h119v38.24A19.07,19.07,0,0,1,594.61,165.51Z"/><path class="cls-2" d="M613.68,108.2v38.24a19.07,19.07,0,0,1-19.07,19.07H513.72a19.07,19.07,0,0,1-19.07-19.07V108.2h119m8-8h-135v46.24a27.1,27.1,0,0,0,27.07,27.07h80.89a27.1,27.1,0,0,0,27.07-27.07V100.2Z"/><g class="cls-3"><path d="M678.12,11.68H61a59,59,0,1,0,0,118.07H486.6v22.91c0,14.22,12.9,25.79,27.12,25.79h80.89c14.22,0,27.19-11.57,27.19-25.79V129.75h56.32a59,59,0,0,0,0-118.07Z"/></g><rect class="cls-4" x="8.67" y="8.09" width="721.77" height="104.64" rx="52.32"/><path class="cls-5" d="M678.12,8.09a52.32,52.32,0,0,1,52.32,52.32h0a52.33,52.33,0,0,1-52.32,52.32H61A52.32,52.32,0,0,1,8.67,60.41h0A52.31,52.31,0,0,1,61,8.09H678.12m0-8H61a60.32,60.32,0,0,0,0,120.64H678.12a60.32,60.32,0,1,0,0-120.64Z"/><path class="cls-6" d="M266.49,112.73H61A52.32,52.32,0,0,1,8.67,60.41h0A52.31,52.31,0,0,1,61,8.09h205.5Z"/><path class="cls-7" d="M266.49,8.09V112.73H61A52.32,52.32,0,0,1,8.67,60.41h0A52.31,52.31,0,0,1,61,8.09h205.5m8-8H61a60.32,60.32,0,0,0,0,120.64h213.5V.09Z"/><text class="cls-8" transform="translate(35.34 75.83)">Player 2:</text><text class="cls-9" transform="translate(541.27 154.48)">Bot</text><g class="cls-10"><rect x="273.2" y="1.37" width="13.19" height="118.07"/></g><rect class="cls-11" x="513.52" y="133.96" width="18.25" height="18.25" rx="2.42"/><g class="cls-10"><rect x="486.6" y="120.72" width="132.57" height="5.13"/></g></g></svg>