<svg xmlns="http://www.w3.org/2000/svg" viewBox="0 0 1682.73 180.74"><defs><style>.cls-1{opacity:0.25;}.cls-2{fill:#f7f7f7;}</style></defs><title>title</title><g id="menu"><g class="cls-1"><path d="M7.27,44q0-9.09,10.9-9.09H87.23L76.32,56.68h-40q-3.63,0-3.63,3.63V74.85q0,3.63,3.63,3.63h40q10.91,0,10.91,10.91v38.16q0,10.9-10.91,10.9h-69L20,116.64H58.15c2.42,0,3.64-1.21,3.64-3.63V98.47c0-2.42-1.22-3.63-3.64-3.63h-40q-10.9,0-10.9-10.91Z"/><path d="M112.67,60.31h61.78l-10.9,21.81H130.84q-3.65,0-3.64,3.63V113q0,3.63,3.64,3.63h43.61l-10.9,21.81H112.67q-10.9,0-10.91-10.9V71.21Q101.76,60.31,112.67,60.31Z"/><path d="M210.8,53H185.35V34.87H210.8Zm-25.45,7.27H210.8v78.14H185.35Z"/><path d="M225.33,71.21q0-10.9,10.91-10.9h65.42L290.75,82.12H254.41q-3.65,0-3.64,3.63v1.82q0,3.63,3.64,3.63h36.34q10.9,0,10.91,12.72v23.63q0,10.9-10.91,10.9H225.33l10.91-21.81h36.34q3.63,0,3.63-3.63v-1.82q0-3.63-3.63-3.63H236.24q-10.91,0-10.91-10.91Z"/><path d="M316.19,71.21q0-10.9,10.91-10.9h65.42L381.61,82.12H345.27q-3.64,0-3.64,3.63v1.82q0,3.63,3.64,3.63h36.34q10.9,0,10.91,12.72v23.63q0,10.9-10.91,10.9H316.19l10.91-21.81h36.34c2.42,0,3.64-1.21,3.64-3.63v-1.82c0-2.42-1.22-3.63-3.64-3.63H327.1q-10.91,0-10.91-10.91Z"/><path d="M483.38,127.55q0,10.9-10.91,10.9H418q-10.9,0-10.91-10.9V71.21q0-10.83,10.91-10.9h54.51q10.9.07,10.91,10.9Zm-47.25-10.91H454.3c2.42,0,3.64-1.21,3.64-3.63V85.75c-.05-2.37-1.27-3.58-3.64-3.63H436.13q-3.63.07-3.63,3.63V113Q432.5,116.64,436.13,116.64Z"/><path d="M574.24,60.31,563.33,82.12H527q-3.65,0-3.64,3.63v52.7H497.91V71.21q0-10.9,10.91-10.9Z"/><path d="M585.14,71.21q0-10.9,10.9-10.9h65.42l-10.9,21.81H614.21q-3.63,0-3.63,3.63v1.82q0,3.63,3.63,3.63h36.35q10.91,0,10.9,12.72v23.63q0,10.9-10.9,10.9H585.14L596,116.64h36.35q3.63,0,3.63-3.63v-1.82q0-3.63-3.63-3.63H596q-10.9,0-10.9-10.91Z"/><path d="M734.15,44q0-9.09,10.9-9.09h69.06L803.2,56.68h-40q-3.65,0-3.64,3.63V74.85q0,3.63,3.64,3.63h40q10.9,0,10.91,10.91v38.16q0,10.9-10.91,10.9H734.15l12.72-21.81H785q3.65,0,3.64-3.63V98.47q0-3.63-3.64-3.63h-40q-10.89,0-10.9-10.91Z"/><path d="M872.26,138.45H846.82V80.3H828.64v-20h18.18L846.74,44h25.52V60.31h18.17v20H872.26Z"/><path d="M981.29,127.55q0,10.9-10.9,10.9H915.87q-10.9,0-10.9-10.9V71.21q0-10.83,10.9-10.9h54.52q10.9.07,10.9,10.9ZM934,116.64h18.17q3.64,0,3.64-3.63V85.75q-.08-3.56-3.64-3.63H934q-3.63.07-3.63,3.63V113Q930.41,116.64,934,116.64Z"/><path d="M1061.25,60.31q10.9,0,10.9,10.9v67.24h-25.44V85.75q0-3.63-3.64-3.63h-21.8v56.33H995.83V60.31Z"/><path d="M1086.69,71.21q0-10.9,10.9-10.9h54.52Q1163,60.31,1163,73v27.26q0,9.09-10.9,9.08h-40V113q0,3.63,3.63,3.63h40l-10.9,21.81h-47.25q-10.9,0-10.9-10.9Zm25.44,14.54V93h21.8q3.64,0,3.64-3.63V85.75q0-3.63-3.64-3.63h-18.17Q1112.13,82.2,1112.13,85.75Z"/><path d="M1304.75,34.87q10.9,0,10.91,10.9V83.93q0,10.91-9.09,10.91h-45.43v43.61H1235.7V34.87Zm-43.61,21.81v21.8h25.44q3.63,0,3.63-3.63V60.31q0-3.63-3.63-3.63Z"/><path d="M1406.52,138.45H1341.1q-10.9,0-10.91-10.9V100.29q0-10.91,10.91-10.9h40V85.75q0-3.63-3.63-3.63h-40l10.9-21.81h47.25q10.91,0,10.91,10.9Zm-25.45-32.71h-21.8q-3.64,0-3.64,3.63V113q0,3.63,3.64,3.63h21.8Z"/><path d="M1497.38,71.21v56.34q-.08,10.9-10.91,10.9h-40v29.07h-25.44V60.31h65.42Q1497.38,60.31,1497.38,71.21ZM1468.3,82.12h-21.81v34.52h21.81c2.37,0,3.59-1.21,3.63-3.63V85.75Q1471.93,82.12,1468.3,82.12Z"/><path d="M1511.91,71.21q0-10.9,10.91-10.9h54.51q10.9,0,10.91,12.72v27.26q0,9.09-10.91,9.08h-40V113q0,3.63,3.64,3.63h40l-10.91,21.81h-47.24q-10.9,0-10.91-10.9Zm25.44,14.54V93h21.81q3.63,0,3.63-3.63V85.75q0-3.63-3.63-3.63H1541Q1537.34,82.2,1537.35,85.75Z"/><path d="M1679.1,60.31l-10.91,21.81h-36.34q-3.64,0-3.64,3.63v52.7h-25.44V71.21q0-10.9,10.91-10.9Z"/></g><path class="cls-2" d="M7.27,31.73q0-9.09,10.9-9.09H87.23L76.32,44.45h-40q-3.63,0-3.63,3.63V62.62c0,2.42,1.21,3.64,3.63,3.64h40q10.91,0,10.91,10.9v38.16q0,10.91-10.91,10.9h-69L20,104.42H58.15c2.42,0,3.64-1.21,3.64-3.64V86.24c0-2.42-1.22-3.63-3.64-3.63h-40q-10.9,0-10.9-10.9Z"/><path class="cls-2" d="M112.67,48.08h61.78l-10.9,21.81H130.84q-3.65,0-3.64,3.63v27.26q0,3.64,3.64,3.64h43.61l-10.9,21.8H112.67q-10.9,0-10.91-10.9V59Q101.76,48.08,112.67,48.08Z"/><path class="cls-2" d="M210.8,40.81H185.35V22.64H210.8Zm-25.45,7.27H210.8v78.14H185.35Z"/><path class="cls-2" d="M225.33,59q0-10.91,10.91-10.91h65.42L290.75,69.89H254.41q-3.65,0-3.64,3.63v1.82q0,3.64,3.64,3.64h36.34q10.9,0,10.91,12.72v23.62q0,10.91-10.91,10.9H225.33l10.91-21.8h36.34q3.63,0,3.63-3.64V99q0-3.64-3.63-3.64H236.24q-10.91,0-10.91-10.9Z"/><path class="cls-2" d="M316.19,59q0-10.91,10.91-10.91h65.42L381.61,69.89H345.27q-3.64,0-3.64,3.63v1.82q0,3.64,3.64,3.64h36.34q10.9,0,10.91,12.72v23.62q0,10.91-10.91,10.9H316.19l10.91-21.8h36.34c2.42,0,3.64-1.21,3.64-3.64V99c0-2.43-1.22-3.64-3.64-3.64H327.1q-10.91,0-10.91-10.9Z"/><path class="cls-2" d="M483.38,115.32q0,10.91-10.91,10.9H418q-10.9,0-10.91-10.9V59q0-10.83,10.91-10.91h54.51q10.9.08,10.91,10.91Zm-47.25-10.9H454.3c2.42,0,3.64-1.21,3.64-3.64V73.52c-.05-2.37-1.27-3.58-3.64-3.63H436.13q-3.63.08-3.63,3.63v27.26Q432.5,104.42,436.13,104.42Z"/><path class="cls-2" d="M574.24,48.08,563.33,69.89H527q-3.65,0-3.64,3.63v52.7H497.91V59q0-10.91,10.91-10.91Z"/><path class="cls-2" d="M585.14,59q0-10.91,10.9-10.91h65.42l-10.9,21.81H614.21q-3.63,0-3.63,3.63v1.82q0,3.64,3.63,3.64h36.35q10.91,0,10.9,12.72v23.62q0,10.91-10.9,10.9H585.14l10.9-21.8h36.35q3.63,0,3.63-3.64V99q0-3.64-3.63-3.64H596q-10.9,0-10.9-10.9Z"/><path class="cls-2" d="M734.15,31.73q0-9.09,10.9-9.09h69.06L803.2,44.45h-40q-3.65,0-3.64,3.63V62.62c0,2.42,1.21,3.64,3.64,3.64h40q10.9,0,10.91,10.9v38.16q0,10.91-10.91,10.9H734.15l12.72-21.8H785q3.65,0,3.64-3.64V86.24q0-3.63-3.64-3.63h-40q-10.89,0-10.9-10.9Z"/><path class="cls-2" d="M872.26,126.22H846.82V68.07H828.64v-20h18.18l-.08-16.35h25.52V48.08h18.17v20H872.26Z"/><path class="cls-2" d="M981.29,115.32q0,10.91-10.9,10.9H915.87q-10.9,0-10.9-10.9V59q0-10.83,10.9-10.91h54.52q10.9.08,10.9,10.91ZM934,104.42h18.17q3.64,0,3.64-3.64V73.52q-.08-3.55-3.64-3.63H934q-3.63.08-3.63,3.63v27.26Q930.41,104.42,934,104.42Z"/><path class="cls-2" d="M1061.25,48.08q10.9,0,10.9,10.91v67.23h-25.44V73.52q0-3.63-3.64-3.63h-21.8v56.33H995.83V48.08Z"/><path class="cls-2" d="M1086.69,59q0-10.91,10.9-10.91h54.52q10.91,0,10.9,12.72V88.06q0,9.09-10.9,9.09h-40v3.63q0,3.64,3.63,3.64h40l-10.9,21.8h-47.25q-10.9,0-10.9-10.9Zm25.44,14.53v7.27h21.8q3.64,0,3.64-3.63V73.52q0-3.63-3.64-3.63h-18.17Q1112.13,70,1112.13,73.52Z"/><path class="cls-2" d="M1304.75,22.64q10.9,0,10.91,10.91V71.71q0,10.91-9.09,10.9h-45.43v43.61H1235.7V22.64Zm-43.61,21.81V66.26h25.44c2.42,0,3.63-1.22,3.63-3.64V48.08q0-3.63-3.63-3.63Z"/><path class="cls-2" d="M1406.52,126.22H1341.1q-10.9,0-10.91-10.9V88.06q0-10.9,10.91-10.9h40V73.52q0-3.63-3.63-3.63h-40l10.9-21.81h47.25q10.91,0,10.91,10.91Zm-25.45-32.71h-21.8c-2.43,0-3.64,1.22-3.64,3.64v3.63q0,3.64,3.64,3.64h21.8Z"/><path class="cls-2" d="M1497.38,59v56.33q-.08,10.91-10.91,10.9h-40V155.3h-25.44V48.08h65.42Q1497.38,48.08,1497.38,59Zm-29.08,10.9h-21.81v34.53h21.81c2.37,0,3.59-1.21,3.63-3.64V73.52Q1471.93,69.89,1468.3,69.89Z"/><path class="cls-2" d="M1511.91,59q0-10.91,10.91-10.91h54.51q10.9,0,10.91,12.72V88.06q0,9.09-10.91,9.09h-40v3.63q0,3.64,3.64,3.64h40l-10.91,21.8h-47.24q-10.9,0-10.91-10.9Zm25.44,14.53v7.27h21.81q3.63,0,3.63-3.63V73.52q0-3.63-3.63-3.63H1541Q1537.34,70,1537.35,73.52Z"/><path class="cls-2" d="M1679.1,48.08l-10.91,21.81h-36.34q-3.64,0-3.64,3.63v52.7h-25.44V59q0-10.91,10.91-10.91Z"/></g></svg>