<svg id="mockUp" xmlns="http://www.w3.org/2000/svg" xmlns:xlink="http://www.w3.org/1999/xlink" viewBox="0 0 343.5 252.31"><defs><style>.cls-1{opacity:0.35;}.cls-2{fill:url(#Unbenannter_Verlauf_439);}.cls-3{fill:url(#Unbenannter_Verlauf_439-2);}.cls-4{fill:url(#Unbenannter_Verlauf_417);}.cls-5{fill:url(#Unbenannter_Verlauf_417-2);}.cls-6{fill:#f5f5f5;}</style><linearGradient id="Unbenannter_Verlauf_439" x1="90.31" y1="164.69" x2="90.31" y2="85.47" gradientUnits="userSpaceOnUse"><stop offset="0" stop-color="#ccc"/><stop offset="0.29" stop-color="#d0d0d0"/><stop offset="0.56" stop-color="#dbdbdb"/><stop offset="0.82" stop-color="#eee"/><stop offset="1" stop-color="#fff"/></linearGradient><linearGradient id="Unbenannter_Verlauf_439-2" x1="90.31" y1="77.47" x2="90.31" y2="172.69" xlink:href="#Unbenannter_Verlauf_439"/><linearGradient id="Unbenannter_Verlauf_417" x1="122.62" y1="206.07" x2="282.45" y2="46.24" gradientUnits="userSpaceOnUse"><stop offset="0" stop-color="#00948f"/><stop offset="0.29" stop-color="#009893"/><stop offset="0.56" stop-color="#00a39d"/><stop offset="0.82" stop-color="#00b6af"/><stop offset="1" stop-color="#00c7c0"/></linearGradient><linearGradient id="Unbenannter_Verlauf_417-2" x1="288.08" y1="40.61" x2="116.99" y2="211.7" xlink:href="#Unbenannter_Verlauf_417"/></defs><title>mockup</title><g id="exoprt"><g class="cls-1"><path class="cls-2" d="M139.2,164.69H67.67a26.24,26.24,0,0,1-26.25-26.24V111.72A26.25,26.25,0,0,1,67.67,85.47H139.2Z"/><path class="cls-3" d="M139.2,85.47v79.22H67.67a26.24,26.24,0,0,1-26.25-26.24V111.72A26.25,26.25,0,0,1,67.67,85.47H139.2m8-8H67.67a34.28,34.28,0,0,0-34.25,34.25v26.73a34.28,34.28,0,0,0,34.25,34.24H147.2V77.47Z"/></g><rect class="cls-4" x="103" y="26.61" width="199.08" height="199.08" rx="67.02"/><path class="cls-5" d="M235.06,26.61a67,67,0,0,1,67,67v65.05a67,67,0,0,1-67,67H170a67,67,0,0,1-67-67V93.63a67,67,0,0,1,67-67h65.05m0-8H170a75.1,75.1,0,0,0-75,75v65.05a75.1,75.1,0,0,0,75,75h65.05a75.1,75.1,0,0,0,75-75V93.63a75.11,75.11,0,0,0-75-75Z"/><g id="Schere"><path class="cls-6" d="M173,122.87,171.54,121l6.1-5-.23-.39c-2.66.68-5.44.37-7.6,3.14-6.18,8-12.66,15.71-19.08,23.49-2.84,3.44-3.73,7.15-2.2,11.41a1.72,1.72,0,0,1-.32,1.52Q133.93,168.61,119.57,182a2.14,2.14,0,0,1-.57.28l-1.44-1.58c.6-.61,1.14-1.22,1.73-1.77q12.55-11.76,25.13-23.49a3.28,3.28,0,0,0,1.22-3.57,11.68,11.68,0,0,1,2.49-10.31q10.58-13.11,21.32-26.08a6.74,6.74,0,0,1,2.38-1.39,4.17,4.17,0,0,1,1.57-.34c6.64-.27,11.68-3.59,16.75-7.64,8.92-7.13,16.46-15.59,24.46-23.62,9.49-9.52,18.82-19.21,28.24-28.81,4.25-4.33,10.35-4.61,14.3-.72s3.94,9.95-.27,14.31Q236.75,88.13,216.6,109a3,3,0,0,0-.5.52c-.26.48-.48,1-.72,1.48a4.54,4.54,0,0,0,1.71-.29c5.72-4,11.4-8,17.1-12q18.87-13.24,37.74-26.47c4.78-3.33,10.67-2.35,13.85,2.2s1.94,10.42-2.86,13.71q-25.26,17.3-50.55,34.53A5.88,5.88,0,0,0,230.9,124c6.43-2.46,12.07-2.23,15.29,4.68,2.25,4.82.7,8.62-4.85,13.47a4.84,4.84,0,0,1,1.4.28,8.4,8.4,0,0,1,4.69,7.57,8.54,8.54,0,0,1-4.49,8.07q-22.78,13.26-45.61,26.47a26,26,0,0,1-16.86,3.18,3.07,3.07,0,0,0-2.85,1Q163.88,202,150.07,215.15c-.42.41-.88.77-1.46,1.27L147,214.68l5.65-5.43c7.92-7.6,15.87-15.18,23.75-22.83a3.87,3.87,0,0,1,3.78-1.22A24.08,24.08,0,0,0,197,182q22-12.83,44-25.55c4.86-2.8,5.43-8.75,1-11.58a7.22,7.22,0,0,0-6.43-.57l-1-2c2-1.06,3.92-2,5.81-3a7.45,7.45,0,0,0-5.61-13.77c-1.55.46-3.09,1-4.61,1.53-3.4,1.23-3.4,1.24-5.46-2.07l11.41-7.79,45-30.73c3.15-2.15,4.42-4.93,3.71-8.09a7.22,7.22,0,0,0-6.14-5.56A7.69,7.69,0,0,0,273,74.47L227.2,106.62c-3.39,2.37-6.8,4.72-10.14,7.17-1.1.81-1.83.75-2.71-.26s-1.79-1.76-2.85-2.79l5.76-6q18.94-19.64,37.89-39.26c3.8-3.94,3.2-9.46-1.28-11.92-3.06-1.69-6.34-1.15-9,1.57Q232.19,68.07,219.53,81C213,87.66,206.74,94.54,200,100.9c-5.24,4.91-11.08,9.17-16.67,13.71C179.93,117.33,176.56,120,173,122.87Z"/><path class="cls-6" d="M250.24,68l-8.07-7.77c1.58-1.59,3-3.18,4.52-4.52a5.51,5.51,0,0,1,7.23.36,5.61,5.61,0,0,1,.56,7.36C253.21,65,251.73,66.38,250.24,68Zm-4.64-7.83,4.59,4.37c1.4-1.73,3.64-2.8,2.79-5.25a4,4,0,0,0-2.48-2.21C248.11,56.5,247.23,58.74,245.6,60.15Z"/><path class="cls-6" d="M269.7,78.64c1.89-1.24,3.57-2.49,5.39-3.49a5.31,5.31,0,0,1,6.85,1.69,5.41,5.41,0,0,1-.68,7.31c-1.58,1.33-3.38,2.42-5.24,3.72Zm6.93,5.86c1.85-1.38,4.17-2.07,3.87-4.59a4,4,0,0,0-2-2.64c-2.22-1-3.56.92-5.36,2Z"/><path class="cls-6" d="M224.18,145.13c-1-1-1.27-1.75-.43-3a3,3,0,0,0-2.63-4.66,1.88,1.88,0,0,1-2.32-1.71,5.07,5.07,0,0,1,7,1.74C227.43,140.06,226.83,143.1,224.18,145.13Z"/><path class="cls-6" d="M215.9,130.29c-.87-.77-1.55-1.36-.82-2.82a3,3,0,0,0-3.44-4.23,1.83,1.83,0,0,1-2.42-1.35,5.17,5.17,0,0,1,7.22.71A5.29,5.29,0,0,1,215.9,130.29Z"/><path class="cls-6" d="M203.82,117.13a2,2,0,0,1-1.24-2.77,3,3,0,0,0-4-3.58c-1.37.58-2,.07-2.66-.85,1.44-2.08,4.68-2.43,6.93-.73A5.38,5.38,0,0,1,203.82,117.13Z"/><path class="cls-6" d="M229.92,159c-.86-1-1.08-1.77-.2-2.89,1.28-1.66.44-3.64-1.59-4.19-1.57-.42-1.57-.42-2-2a4.52,4.52,0,0,1,5.93,2C233.46,154.61,232.66,157.37,229.92,159Z"/></g><path class="cls-6" d="M87.67,142.16H63.94c-2.63,0-3.95-1.31-3.95-3.95v-9.89q0-3.94,3.95-3.95H78.45v-1.32a1.17,1.17,0,0,0-1.32-1.32H62.63l3.95-7.91H83.72c2.64,0,4,1.32,4,4ZM78.45,130.3H70.54a1.17,1.17,0,0,0-1.32,1.32v1.32a1.16,1.16,0,0,0,1.32,1.31h7.91Z"/></g></svg>