<svg id="mockUp" xmlns="http://www.w3.org/2000/svg" xmlns:xlink="http://www.w3.org/1999/xlink" viewBox="0 0 343.5 252.31"><defs><style>.cls-1{opacity:0.35;}.cls-2{fill:url(#Unbenannter_Verlauf_439);}.cls-3{fill:url(#Unbenannter_Verlauf_439-2);}.cls-4{fill:url(#Unbenannter_Verlauf_417);}.cls-5{fill:url(#Unbenannter_Verlauf_417-2);}.cls-6{fill:#f5f5f5;}</style><linearGradient id="Unbenannter_Verlauf_439" x1="90.31" y1="165.77" x2="90.31" y2="86.55" gradientUnits="userSpaceOnUse"><stop offset="0" stop-color="#ccc"/><stop offset="0.29" stop-color="#d0d0d0"/><stop offset="0.56" stop-color="#dbdbdb"/><stop offset="0.82" stop-color="#eee"/><stop offset="1" stop-color="#fff"/></linearGradient><linearGradient id="Unbenannter_Verlauf_439-2" x1="90.31" y1="78.54" x2="90.31" y2="173.77" xlink:href="#Unbenannter_Verlauf_439"/><linearGradient id="Unbenannter_Verlauf_417" x1="122.62" y1="206.07" x2="282.45" y2="46.24" gradientUnits="userSpaceOnUse"><stop offset="0" stop-color="#00948f"/><stop offset="0.29" stop-color="#009893"/><stop offset="0.56" stop-color="#00a39d"/><stop offset="0.82" stop-color="#00b6af"/><stop offset="1" stop-color="#00c7c0"/></linearGradient><linearGradient id="Unbenannter_Verlauf_417-2" x1="288.08" y1="40.61" x2="116.99" y2="211.7" xlink:href="#Unbenannter_Verlauf_417"/></defs><title>item</title><g class="cls-1"><path class="cls-2" d="M139.2,165.77H67.67a26.25,26.25,0,0,1-26.25-26.25V112.79A26.24,26.24,0,0,1,67.67,86.55H139.2Z"/><path class="cls-3" d="M139.2,86.54v79.23H67.67a26.25,26.25,0,0,1-26.25-26.25V112.79A26.25,26.25,0,0,1,67.67,86.54H139.2m8-8H67.67a34.29,34.29,0,0,0-34.25,34.25v26.73a34.28,34.28,0,0,0,34.25,34.25H147.2V78.54Z"/></g><rect class="cls-4" x="103" y="26.61" width="199.08" height="199.08" rx="67.02"/><path class="cls-5" d="M235.06,26.61a67,67,0,0,1,67,67v65.05a67,67,0,0,1-67,67H170a67,67,0,0,1-67-67V93.63a67,67,0,0,1,67-67h65.05m0-8H170a75.1,75.1,0,0,0-75,75v65.05a75.1,75.1,0,0,0,75,75h65.05a75.1,75.1,0,0,0,75-75V93.63a75.11,75.11,0,0,0-75-75Z"/><g id="Stein"><path class="cls-6" d="M228.62,134.77l-1.57-1.53,8.61-8.67c1.08-1.09,2.2-2.16,3.26-3.29a7.21,7.21,0,0,0-10-10.36c-2.92,2.71-5.69,5.58-8.5,8.4A17.63,17.63,0,0,0,219.1,121l-1.89-1.78a12.39,12.39,0,0,1,.92-1.1c3.61-3.62,7.25-7.21,10.86-10.83,3.27-3.26,3.43-7.6.39-10.6S222,93.74,218.77,97c-3.51,3.54-7,7.08-10.49,10.69-1.15,1.19-2.05,1.6-3.11-.36l4.68-4.81c.82-.85,1.67-1.69,2.48-2.56A7.24,7.24,0,0,0,202.11,89.7c-3,2.86-5.78,6-8.85,8.8-6.21,5.69-12.55,11.24-18.94,16.94l-1.52-1.75,1.45-1.81c-1.76.23-2.92.68-3.77,2-5.21,8.31-10.52,16.55-15.72,24.86a12.73,12.73,0,0,0-1.17,12.1,2.73,2.73,0,0,1-.74,3.4c-7.17,7.54-14.26,15.15-21.37,22.74-.32.35-.57.76-1,1.33l-1.82-1.95c3.27-3.53,6.44-7,9.64-10.4,3.94-4.21,7.87-8.43,11.85-12.61a2.52,2.52,0,0,0,.71-2.83,15.64,15.64,0,0,1,2-13.47c5.26-8.27,10.46-16.59,15.78-24.82a5.31,5.31,0,0,1,2.8-2.18,31.87,31.87,0,0,0,15.29-8.92c4.16-4.25,8.56-8.25,12.76-12.46,3.08-3.09,6.58-4.46,10.82-3,4,1.4,6.09,4.36,6.53,8.53a2.7,2.7,0,0,0,.27.61c4.26-3.41,8.78-4.1,13.19-.64,4,3.12,4.41,7.35,2.62,12.13,4.67.33,8.37,2.12,9.92,6.75s-.15,8.36-3.86,11.6c.79.24,1.26.4,1.74.52,6.86,1.81,9.18,9.65,4.19,14.72q-8,8.14-16.36,15.9c-7,6.47-14.13,12.73-21.17,19.12a23.45,23.45,0,0,1-17.56,6.47,3.8,3.8,0,0,0-3.35,1.47q-11.44,12.74-23,25.39c-.32.35-.61.73-1.22,1.46l-1.5-2.15,7.83-8.61q8.66-9.49,17.28-19a2.86,2.86,0,0,1,2.76-1.07,19.88,19.88,0,0,0,15.9-4.85c13-11.72,26.45-23,38.53-35.78a6.11,6.11,0,0,0,1.9-5.66,6.22,6.22,0,0,0-10.35-3.54C232.65,130.87,230.76,132.76,228.62,134.77Z"/><path class="cls-6" d="M208.8,124.52c-1.23-.7-1.74-1.36-1.22-2.87a3.56,3.56,0,0,0-.93-3,3.26,3.26,0,0,0-2.85-.7c-1.51.61-2.15-.07-2.88-1.06a5.43,5.43,0,0,1,7.4-.2C210.55,118.71,210.79,121.86,208.8,124.52Z"/><path class="cls-6" d="M187.88,106.75a5.51,5.51,0,0,1,7.47-.86,5.44,5.44,0,0,1,1.14,7.47,1.9,1.9,0,0,1-1.46-2.59,3.06,3.06,0,0,0-4.24-3.32C189.19,108.07,189.19,108.07,187.88,106.75Z"/><path class="cls-6" d="M218.93,137.8c-1.17-.82-1.53-1.56-.79-3a3,3,0,0,0-3.29-4.15,2,2,0,0,1-2.64-1.48,5.37,5.37,0,0,1,7.43,1A5.6,5.6,0,0,1,218.93,137.8Z"/><path class="cls-6" d="M221.85,142c2.63-1.24,5.16-.52,6.44,1.71a4.65,4.65,0,0,1-1.43,6.28c-.77-.85-1.39-1.54-.59-2.89a2.24,2.24,0,0,0-2-3.3C222.68,144,222.34,143.17,221.85,142Z"/></g><path class="cls-6" d="M60,117q0-4,3.95-4H87.67l-4,7.91H70.54a1.17,1.17,0,0,0-1.32,1.32V123a1.17,1.17,0,0,0,1.32,1.32H83.72c2.64,0,4,1.53,4,4.61v8.57c0,2.64-1.31,3.95-4,3.95H60l3.95-7.91H77.13a1.16,1.16,0,0,0,1.32-1.31v-.66a1.17,1.17,0,0,0-1.32-1.32H63.94q-3.94,0-3.95-4Z"/></svg>