<svg id="mockUp" xmlns="http://www.w3.org/2000/svg" xmlns:xlink="http://www.w3.org/1999/xlink" viewBox="0 0 343.5 252.31"><defs><style>.cls-1{opacity:0.35;}.cls-2{fill:url(#Unbenannter_Verlauf_439);}.cls-3{fill:url(#Unbenannter_Verlauf_439-2);}.cls-4{fill:url(#Unbenannter_Verlauf_417);}.cls-5{fill:url(#Unbenannter_Verlauf_417-2);}.cls-6{opacity:0.9;}.cls-7{fill:#f5f5f5;}</style><linearGradient id="Unbenannter_Verlauf_439" x1="90.31" y1="165.28" x2="90.31" y2="86.06" gradientUnits="userSpaceOnUse"><stop offset="0" stop-color="#ccc"/><stop offset="0.29" stop-color="#d0d0d0"/><stop offset="0.56" stop-color="#dbdbdb"/><stop offset="0.82" stop-color="#eee"/><stop offset="1" stop-color="#fff"/></linearGradient><linearGradient id="Unbenannter_Verlauf_439-2" x1="90.31" y1="78.06" x2="90.31" y2="173.28" xlink:href="#Unbenannter_Verlauf_439"/><linearGradient id="Unbenannter_Verlauf_417" x1="122.62" y1="206.66" x2="282.45" y2="46.83" gradientUnits="userSpaceOnUse"><stop offset="0" stop-color="#00948f"/><stop offset="0.29" stop-color="#009893"/><stop offset="0.56" stop-color="#00a39d"/><stop offset="0.82" stop-color="#00b6af"/><stop offset="1" stop-color="#00c7c0"/></linearGradient><linearGradient id="Unbenannter_Verlauf_417-2" x1="288.08" y1="41.2" x2="116.99" y2="212.29" xlink:href="#Unbenannter_Verlauf_417"/></defs><title>mockup</title><g id="exoprt"><g class="cls-1"><path class="cls-2" d="M139.2,165.28H67.67A26.25,26.25,0,0,1,41.42,139V112.3A26.24,26.24,0,0,1,67.67,86.06H139.2Z"/><path class="cls-3" d="M139.2,86.06v79.22H67.67A26.25,26.25,0,0,1,41.42,139V112.3A26.24,26.24,0,0,1,67.67,86.06H139.2m8-8H67.67A34.28,34.28,0,0,0,33.42,112.3V139a34.28,34.28,0,0,0,34.25,34.25H147.2V78.06Z"/></g><rect class="cls-4" x="103" y="27.2" width="199.08" height="199.08" rx="67.02"/><path class="cls-5" d="M235.06,27.2a67,67,0,0,1,67,67v65.05a67,67,0,0,1-67,67H170a67,67,0,0,1-67-67V94.22a67,67,0,0,1,67-67h65.05m0-8H170a75.1,75.1,0,0,0-75,75v65.05a75.1,75.1,0,0,0,75,75h65.05a75.1,75.1,0,0,0,75-75V94.22a75.1,75.1,0,0,0-75-75Z"/><g id="papier" class="cls-6"><path class="cls-7" d="M202.23,94.2c-2-1-1.15-1.89-.16-2.83Q215,79,228,66.68c2.7-2.59,3.2-6.15,1.3-8.85-2.48-3.53-7-3.88-10.33-.69-6,5.65-11.85,11.36-17.78,17-4.91,4.7-10,9.25-14.73,14.09-3.09,3.14-5.78,6.67-8.62,10.07-5,5.94-9.93,11.89-14.83,17.89-3.69,4.5-7.5,8.93-10.86,13.67a21.6,21.6,0,0,0-3.73,13.49,3,3,0,0,1-.88,2.07q-14.73,13.08-29.55,26.06a5.35,5.35,0,0,1-1.52,1.16,4.14,4.14,0,0,1-1.63-.07c0-.53-.12-1.27.17-1.57,1.16-1.18,2.47-2.23,3.72-3.33q13.14-11.55,26.25-23.12a3.22,3.22,0,0,0,1-2.1c.12-7.14,2.93-13.16,7.42-18.53,7.92-9.49,16-18.88,23.69-28.54,6-7.5,13-14,19.91-20.55S210.55,62,217.28,55.49c2.7-2.6,5.76-3.63,9.31-2.46a8.69,8.69,0,0,1,6.16,7.62,4.64,4.64,0,0,0,.2.73s.09.07.31.23c.38-.3.84-.6,1.24-1,3-2.81,6-5.6,8.95-8.45s6.23-3.77,10.05-2.52a9.49,9.49,0,0,1,6.72,7.91c.07.43.19.86.41,1.85,1.37-1.37,2.44-2.5,3.57-3.56a9.5,9.5,0,0,1,11-1.58c3.91,2.16,6,6.24,5,10.49a16.7,16.7,0,0,1-2.57,4.83A21.22,21.22,0,0,1,275,72.32c.9.17,1.35.28,1.82.35a9.52,9.52,0,0,1,8.09,6.51,9.1,9.1,0,0,1-2.22,9.94Q266,106.4,249.21,123.65c-.48.49-1,1-1.75,1.74a20.28,20.28,0,0,1,2.21.83c2.58,1.38,5.17,2.76,7.69,4.24,1.37.8,1.27,1.71.1,2.85-10.16,10-20.47,19.8-30.31,30.07a37.8,37.8,0,0,1-16.81,10.46c-5.45,1.64-10.74,3.82-16.07,5.84a27,27,0,0,1-16.27.72,3.32,3.32,0,0,0-3.44.81c-8.5,7.7-17.08,15.31-25.59,23-1.27,1.14-2,1-2.83-.64,2.27-2.08,4.55-4.21,6.87-6.29,6.63-5.94,13.32-11.82,19.9-17.83,1.65-1.52,3.12-2.12,5.44-1.48a25.44,25.44,0,0,0,16.56-1.08c7.39-2.9,14.91-5.46,22.35-8.23A7.8,7.8,0,0,0,220,167c7.68-7.55,15.28-15.19,23-22.73,1.22-1.2,1.25-1.93,0-3.05-1.59-1.39-3-2.93-4.5-4.47-.83-.89-1.48-.9-2.4-.07-5.27,4.77-10.59,9.49-15.9,14.23a15.87,15.87,0,0,1-1.61,1.36,4.4,4.4,0,0,0-2.22,4c.07,1.67-.67,2.22-2.38,1.53.07-2.58.28-4.91,2.63-6.88,6.08-5.11,12-10.41,17.85-15.79,4-3.69,7.8-7.61,11.61-11.5q11-11.28,22-22.64,6.36-6.55,12.72-13.11a7.37,7.37,0,0,0,1.92-8,6.92,6.92,0,0,0-5.94-4.82,7.23,7.23,0,0,0-6.29,2.17c-9,8.8-18,17.55-26.94,26.36-5.07,5-10.06,10-15,15-2-1-1.92-1.72-.75-2.88q21.59-21.27,43.11-42.57c1.65-1.62,3.31-3.22,4.92-4.88,3.1-3.21,3.13-7.7.11-10.65s-7.41-2.75-10.5.33q-23.38,23.26-46.74,46.57c-.27.27-.5.7-.82.78a8.6,8.6,0,0,1-1.77.11c0-.6-.16-1.41.15-1.76,1.55-1.71,3.24-3.29,4.87-4.92l30.35-30.31c1.32-1.31,2.72-2.53,4-3.87,3.29-3.43,3.41-7.7.36-10.79s-7.37-3.07-10.81.17c-8,7.51-15.91,15.08-23.88,22.61q-9,8.52-18.05,17C202.77,93.8,202.51,94,202.23,94.2Zm38.33,41.41c1.67,1.68,3.21,3.27,4.84,4.78a1.32,1.32,0,0,0,1.29,0c1.89-1.78,3.7-3.63,5.55-5.48C249.12,132.48,244.18,132.73,240.56,135.61Zm1.33-3.83a13.65,13.65,0,0,1,11.82.82c.25.14.76-.18,1.14-.29-.14-.37-.18-.93-.44-1.07a45.36,45.36,0,0,0-5.85-2.79C245.22,127.31,243.83,128.06,241.89,131.78Z"/><path class="cls-7" d="M246.56,62.71c-3.9-4-3.9-4,.17-7.72a5.49,5.49,0,0,1,7.71,7.83C250.62,66.88,250.62,66.88,246.56,62.71Zm1.79-1.41c.93.36,1.22,2.79,3.13,1.07,2.31-2.09,2.83-3.91,1.45-5.52s-3.29-1.41-5.07.16S246,58.64,248.35,61.3Z"/><path class="cls-7" d="M275.71,90.41l-7.7-7.7c1.55-1.55,3-3.25,4.71-4.64a5,5,0,0,1,6.51.54,5.34,5.34,0,0,1,1.22,6.62,6,6,0,0,1-.85,1.27C278.42,87.73,277.19,88.93,275.71,90.41Zm-2.42-5.56c2.36,2.3,2.36,2.3,3.79.84,1.93-2,2.18-3.93.69-5.33s-3.38-1-5.19.83C271.1,82.71,271.1,82.71,273.29,84.85Z"/><path class="cls-7" d="M262.58,63c1.95-1.7,3.56-3.36,5.42-4.67s4.69-.76,6.37.9a5.16,5.16,0,0,1,.93,6.51,26.18,26.18,0,0,1-4.08,4.28,1.79,1.79,0,0,1-1.73-.19C267.24,67.78,265.11,65.57,262.58,63Zm5.61,2.42c2.21,2.3,2.21,2.3,3.71.88,2-1.91,2.31-3.78.86-5.29s-3.22-1.29-5,.43S266,63.16,268.19,65.46Z"/><path class="cls-7" d="M217.2,61a49.35,49.35,0,0,1,4.62-3.67,4.46,4.46,0,0,1,5.68,1.27,4.39,4.39,0,0,1,0,5.65,18.2,18.2,0,0,1-3.22,3,2,2,0,0,1-1.83-.35C220.74,65.13,219.14,63.22,217.2,61Zm5,2.13c1.53,1.64,1.54,1.64,2.75.54s1.52-2.66.63-3.7-2.47-1-3.9.23C219.94,61.68,221.64,62.34,222.21,63.16Z"/><path class="cls-7" d="M203.28,111.14a7.21,7.21,0,0,1-.55-2.29,3.3,3.3,0,0,0-4.52-3.65,11.54,11.54,0,0,1-2.72.09,4.85,4.85,0,0,1,7.24-1.66A4.69,4.69,0,0,1,203.28,111.14Z"/><path class="cls-7" d="M226.38,137.54c-1-.64-1.34-1.2-.72-2.37,1.37-2.6-.26-5-3.18-4.78-1.37.13-1.85-.39-2.09-1.53a5.28,5.28,0,0,1,6,8.68Z"/><path class="cls-7" d="M216.37,122.58c-1.24-.57-1.39-1.27-1-2.49.84-2.57-1.12-4.53-3.82-4.15a10.23,10.23,0,0,1-2.85-.57c2.61-2.42,5.47-2.25,7.61-.06A5,5,0,0,1,216.37,122.58Z"/><path class="cls-7" d="M182.87,96.81A4.41,4.41,0,0,1,189,95.16c2.44,1.27,3.3,3.83,2.15,6.6a1.8,1.8,0,0,1-1.78-2c-.1-2.43-2-3.64-4.08-2.5A1.59,1.59,0,0,1,182.87,96.81Z"/></g><path class="cls-7" d="M58,139.33V118.89q0-3.94,4-4h14.5v-9.23h9.23v37.57H61.91C59.27,143.28,58,142,58,139.33Zm10.55-4h7.91V122.85H68.5a1.18,1.18,0,0,0-1.32,1.32v9.89A1.16,1.16,0,0,0,68.5,135.37Z"/></g></svg>