<svg id="mockUp" xmlns="http://www.w3.org/2000/svg" xmlns:xlink="http://www.w3.org/1999/xlink" viewBox="0 0 343.5 252.31"><defs><style>.cls-1{opacity:0.25;}.cls-2{fill:url(#Unbenannter_Verlauf_463);}.cls-3{fill:url(#Unbenannter_Verlauf_463-2);}.cls-4{fill:url(#Unbenannter_Verlauf_464);}.cls-5{fill:url(#Unbenannter_Verlauf_464-2);}.cls-6{fill:#f5f5f5;}</style><linearGradient id="Unbenannter_Verlauf_463" x1="3953.16" y1="164.69" x2="3953.16" y2="85.47" gradientTransform="matrix(-1, 0, 0, 1, 4223.95, 0)" gradientUnits="userSpaceOnUse"><stop offset="0" stop-color="#ccc"/><stop offset="0.29" stop-color="#d0d0d0"/><stop offset="0.56" stop-color="#dbdbdb"/><stop offset="0.82" stop-color="#eee"/><stop offset="1" stop-color="#fff"/></linearGradient><linearGradient id="Unbenannter_Verlauf_463-2" x1="270.8" y1="77.47" x2="270.8" y2="172.69" gradientTransform="matrix(1, 0, 0, 1, 0, 0)" xlink:href="#Unbenannter_Verlauf_463"/><linearGradient id="Unbenannter_Verlauf_464" x1="60.55" y1="206.07" x2="220.38" y2="46.24" gradientUnits="userSpaceOnUse"><stop offset="0" stop-color="#943e00"/><stop offset="0.29" stop-color="#984000"/><stop offset="0.56" stop-color="#a34400"/><stop offset="0.82" stop-color="#b64c00"/><stop offset="1" stop-color="#c75300"/></linearGradient><linearGradient id="Unbenannter_Verlauf_464-2" x1="226.01" y1="40.61" x2="54.92" y2="211.7" xlink:href="#Unbenannter_Verlauf_464"/></defs><title>item</title><g class="cls-1"><path class="cls-2" d="M240,164.69h40.75a20.82,20.82,0,0,0,20.82-20.82V106.3a20.82,20.82,0,0,0-20.82-20.83H240Z"/><path class="cls-3" d="M280.76,85.47a20.82,20.82,0,0,1,20.82,20.83v37.57a20.82,20.82,0,0,1-20.82,20.82H240V85.47h40.75m0-8H232v95.22h48.75a28.85,28.85,0,0,0,28.82-28.82V106.3a28.86,28.86,0,0,0-28.82-28.83Z"/></g><rect class="cls-4" x="40.92" y="26.61" width="199.08" height="199.08" rx="67.02"/><path class="cls-5" d="M173,26.61a67,67,0,0,1,67,67v65.05a67,67,0,0,1-67,67H107.94a67,67,0,0,1-67-67V93.63a67,67,0,0,1,67-67H173m0-8H107.94a75.11,75.11,0,0,0-75,75v65.05a75.11,75.11,0,0,0,75,75H173a75.1,75.1,0,0,0,75-75V93.63a75.11,75.11,0,0,0-75-75Z"/><g id="Schere"><path class="cls-6" d="M131.22,158.49l-1.76,1.57-5.32-5.86-.39.24c.8,2.63.61,5.43,3.48,7.45,8.24,5.82,16.26,12,24.32,18,3.56,2.68,7.31,3.4,11.5,1.69a1.73,1.73,0,0,1,1.53.25q14.08,13.66,28.1,27.41a2.42,2.42,0,0,1,.31.56l-1.52,1.51c-.64-.57-1.27-1.09-1.85-1.66q-12.3-12-24.59-24a3.27,3.27,0,0,0-3.61-1.06,11.7,11.7,0,0,1-10.42-2q-13.58-10-27-20.13a6.7,6.7,0,0,1-1.5-2.31,4.38,4.38,0,0,1-.4-1.56c-.57-6.62-4.12-11.5-8.39-16.39-7.52-8.59-16.31-15.75-24.69-23.38C79.07,109.71,69,100.82,59,91.84c-4.51-4-5.07-10.13-1.36-14.25s9.76-4.38,14.31-.37q21.75,19.17,43.49,38.37a2.64,2.64,0,0,0,.54.47c.49.25,1,.44,1.51.66-.12-.57-.06-1.28-.37-1.69-4.22-5.54-8.49-11-12.74-16.56Q90.27,80.23,76.21,62C72.67,57.34,73.39,51.41,77.79,48s10.32-2.4,13.82,2.25Q110,74.72,128.38,99.22a5.82,5.82,0,0,0,1.4,1.41c-2.74-6.31-2.77-12,4-15.49,4.72-2.46,8.58-1.08,13.68,4.25a5,5,0,0,1,.22-1.42A8.39,8.39,0,0,1,155,83a8.56,8.56,0,0,1,8.27,4.12q14.27,22.17,28.48,44.38a26,26,0,0,1,3.94,16.7,3.06,3.06,0,0,0,1.08,2.8q13.86,13.14,27.65,26.34c.42.4.81.85,1.34,1.4l-1.67,1.67-5.68-5.4c-8-7.58-15.88-15.18-23.87-22.71a3.85,3.85,0,0,1-1.39-3.71,24,24,0,0,0-4-16.61q-13.78-21.39-27.49-42.85c-3-4.72-9-5-11.62-.49A7.22,7.22,0,0,0,149.8,95l-1.92,1.11c-1.15-2-2.21-3.84-3.3-5.67a7.44,7.44,0,0,0-13.5,6.22c.52,1.53,1.11,3,1.73,4.53,1.38,3.35,1.39,3.34-1.83,5.55l-8.28-11L90,52.12c-2.3-3.06-5.13-4.2-8.26-3.35a7.23,7.23,0,0,0-5.28,6.39,7.75,7.75,0,0,0,2,5.63q17.1,22.14,34.17,44.32c2.52,3.28,5,6.58,7.61,9.8.87,1.07.84,1.8-.13,2.73s-1.68,1.86-2.66,3c-2.13-1.86-4.18-3.67-6.23-5.48L70.23,79c-4.11-3.61-9.59-2.76-11.85,1.82-1.55,3.13-.86,6.38,2,8.93q13.45,12.09,27,24.14c6.94,6.2,14.09,12.18,20.75,18.67,5.14,5,9.66,10.66,14.44,16C125.38,151.84,128.22,155.09,131.22,158.49Z"/><path class="cls-6" d="M72.92,83.82l-7.39,8.41c-1.67-1.51-3.31-2.8-4.73-4.32a5.5,5.5,0,0,1,0-7.23,5.61,5.61,0,0,1,7.33-.89C69.8,81,71.26,82.4,72.92,83.82Zm-7.61,5L69.47,84c-1.79-1.32-3-3.52-5.36-2.55A4,4,0,0,0,62,84.05C61.55,86.46,63.83,87.24,65.31,88.81Z"/><path class="cls-6" d="M82.7,63.9c-1.32-1.83-2.64-3.45-3.72-5.22a5.32,5.32,0,0,1,1.37-6.92,5.43,5.43,0,0,1,7.34.34c1.4,1.53,2.57,3.28,4,5.07Zm5.55-7.19c-1.46-1.78-2.25-4.07-4.76-3.66a4,4,0,0,0-2.55,2.12C80,57.43,82,58.69,83.22,60.43Z"/><path class="cls-6" d="M151.17,106.4c-.93,1-1.69,1.34-3,.56a3,3,0,0,0-4.54,2.83,1.88,1.88,0,0,1-1.6,2.4,5.07,5.07,0,0,1,1.42-7C146,103.37,149,103.84,151.17,106.4Z"/><path class="cls-6" d="M136.71,115.33c-.72.91-1.28,1.61-2.77,1a3,3,0,0,0-4.07,3.63,1.83,1.83,0,0,1-1.25,2.47,5.16,5.16,0,0,1,.39-7.24A5.28,5.28,0,0,1,136.71,115.33Z"/><path class="cls-6" d="M124.11,128a2,2,0,0,1-2.72,1.36A3,3,0,0,0,118,133.5c.64,1.34.16,2-.73,2.7-2.15-1.35-2.63-4.57-1-6.9A5.39,5.39,0,0,1,124.11,128Z"/><path class="cls-6" d="M164.78,100c-.95.9-1.72,1.16-2.89.33-1.71-1.21-3.65-.28-4.11,1.78-.35,1.58-.35,1.58-1.87,2.07a4.52,4.52,0,0,1,1.78-6C160.22,96.7,163,97.38,164.78,100Z"/></g><path class="cls-6" d="M257.6,128.66v-.21l15-14.43,3.76,4.28-8.07,7.1h19.27v6.32H268.29l8.07,7.09-3.76,4.28Z"/></svg>