<svg id="mockUp" xmlns="http://www.w3.org/2000/svg" xmlns:xlink="http://www.w3.org/1999/xlink" viewBox="0 0 343.5 252.31"><defs><style>.cls-1{opacity:0.25;}.cls-2{fill:url(#Unbenannter_Verlauf_439);}.cls-3{fill:url(#Unbenannter_Verlauf_439-2);}.cls-4{fill:url(#Unbenannter_Verlauf_464);}.cls-5{fill:url(#Unbenannter_Verlauf_464-2);}.cls-6{fill:#f5f5f5;}</style><linearGradient id="Unbenannter_Verlauf_439" x1="3952.66" y1="165.42" x2="3952.66" y2="86.2" gradientTransform="matrix(-1, 0, 0, 1, 4223.95, 0)" gradientUnits="userSpaceOnUse"><stop offset="0" stop-color="#ccc"/><stop offset="0.29" stop-color="#d0d0d0"/><stop offset="0.56" stop-color="#dbdbdb"/><stop offset="0.82" stop-color="#eee"/><stop offset="1" stop-color="#fff"/></linearGradient><linearGradient id="Unbenannter_Verlauf_439-2" x1="271.29" y1="78.2" x2="271.29" y2="173.42" gradientTransform="matrix(1, 0, 0, 1, 0, 0)" xlink:href="#Unbenannter_Verlauf_439"/><linearGradient id="Unbenannter_Verlauf_464" x1="61.05" y1="206.07" x2="220.88" y2="46.24" gradientUnits="userSpaceOnUse"><stop offset="0" stop-color="#943e00"/><stop offset="0.29" stop-color="#984000"/><stop offset="0.56" stop-color="#a34400"/><stop offset="0.82" stop-color="#b64c00"/><stop offset="1" stop-color="#c75300"/></linearGradient><linearGradient id="Unbenannter_Verlauf_464-2" x1="226.51" y1="40.61" x2="55.42" y2="211.7" xlink:href="#Unbenannter_Verlauf_464"/></defs><title>item</title><g class="cls-1"><path class="cls-2" d="M240.5,165.42h40.75a20.82,20.82,0,0,0,20.83-20.83V107A20.82,20.82,0,0,0,281.25,86.2H240.5Z"/><path class="cls-3" d="M281.25,86.2A20.82,20.82,0,0,1,302.08,107v37.56a20.82,20.82,0,0,1-20.83,20.83H240.5V86.2h40.75m0-8H232.5v95.22h48.75a28.86,28.86,0,0,0,28.83-28.83V107A28.86,28.86,0,0,0,281.25,78.2Z"/></g><rect class="cls-4" x="41.42" y="26.61" width="199.08" height="199.08" rx="67.02"/><path class="cls-5" d="M173.49,26.61a67,67,0,0,1,67,67v65.05a67,67,0,0,1-67,67H108.44a67,67,0,0,1-67-67V93.63a67,67,0,0,1,67-67h65.05m0-8H108.44a75.11,75.11,0,0,0-75,75v65.05a75.1,75.1,0,0,0,75,75h65.05a75.1,75.1,0,0,0,75-75V93.63a75.1,75.1,0,0,0-75-75Z"/><g id="Stein"><path class="cls-6" d="M147.89,107.34l-1.52,1.57-8.67-8.6c-1.1-1.09-2.17-2.2-3.29-3.26a7.21,7.21,0,0,0-10.36,10c2.71,2.92,5.58,5.68,8.4,8.5.46.45,1,.8,1.64,1.29l-1.77,1.89c-.42-.35-.79-.6-1.11-.92L120.39,107c-3.26-3.27-7.61-3.42-10.6-.39s-2.92,7.38.34,10.61c3.54,3.52,7.08,7,10.68,10.5,1.2,1.14,1.6,2-.36,3.11l-4.81-4.68c-.85-.83-1.69-1.67-2.56-2.48a7.23,7.23,0,0,0-10.25,10.21c2.86,3,6,5.79,8.79,8.85,5.69,6.22,11.25,12.56,16.95,19l-1.76,1.52-1.8-1.46c.22,1.76.68,2.92,2,3.78,8.3,5.21,16.55,10.51,24.85,15.72a12.73,12.73,0,0,0,12.1,1.16,2.75,2.75,0,0,1,3.41.75c7.53,7.16,15.14,14.26,22.74,21.37.34.32.76.57,1.32,1l-1.94,1.82c-3.53-3.27-7-6.45-10.4-9.65-4.22-3.93-8.43-7.86-12.61-11.84a2.53,2.53,0,0,0-2.84-.71,15.66,15.66,0,0,1-13.46-2c-8.28-5.26-16.59-10.46-24.83-15.78a5.28,5.28,0,0,1-2.17-2.81,31.89,31.89,0,0,0-8.93-15.29c-4.24-4.15-8.25-8.55-12.45-12.75-3.09-3.09-4.46-6.59-3-10.83,1.4-4,4.35-6.08,8.53-6.52a3.26,3.26,0,0,0,.61-.27c-3.41-4.27-4.11-8.78-.65-13.19,3.13-4,7.36-4.41,12.14-2.63.33-4.67,2.12-8.37,6.74-9.91s8.36.15,11.61,3.85c.23-.79.39-1.26.52-1.74C140.18,88.36,148,86,153.09,91q8.13,8,15.9,16.36c6.47,7,12.72,14.14,19.12,21.18a23.38,23.38,0,0,1,6.46,17.56,3.83,3.83,0,0,0,1.48,3.35q12.72,11.44,25.39,23c.35.31.72.6,1.45,1.21l-2.14,1.5c-2.82-2.56-5.72-5.19-8.61-7.83q-9.49-8.64-19-17.27a2.85,2.85,0,0,1-1.06-2.76,19.88,19.88,0,0,0-4.85-15.9c-11.73-13-23-26.45-35.78-38.54a6.25,6.25,0,0,0-9.21,8.46C144,103.32,145.89,105.21,147.89,107.34Z"/><path class="cls-6" d="M137.65,127.16c-.71,1.23-1.37,1.75-2.88,1.23a3.52,3.52,0,0,0-2.94.93,3.21,3.21,0,0,0-.7,2.84c.61,1.52-.07,2.16-1.06,2.88a5.41,5.41,0,0,1-.2-7.4C131.83,125.41,135,125.18,137.65,127.16Z"/><path class="cls-6" d="M119.88,148.08a5.43,5.43,0,0,1,6.61-8.6,1.9,1.9,0,0,1-2.59,1.46,3.06,3.06,0,0,0-3.32,4.23C121.2,146.78,121.2,146.78,119.88,148.08Z"/><path class="cls-6" d="M150.92,117c-.82,1.17-1.55,1.52-3,.78a3,3,0,0,0-4.14,3.3,2,2,0,0,1-1.48,2.64,5.37,5.37,0,0,1,1-7.43A5.58,5.58,0,0,1,150.92,117Z"/><path class="cls-6" d="M155.14,114.11c-1.24-2.63-.52-5.15,1.71-6.43a4.65,4.65,0,0,1,6.28,1.42c-.84.78-1.54,1.4-2.89.6a2.22,2.22,0,0,0-3.29,2C157.12,113.29,156.29,113.62,155.14,114.11Z"/></g><path class="cls-6" d="M273.83,123.51l-7.1,8.08-4.28-3.75,14.43-15h.22l14.42,15-4.27,3.75-7.1-8.08V142.8h-6.32Z"/></svg>