<svg id="mockUp" xmlns="http://www.w3.org/2000/svg" xmlns:xlink="http://www.w3.org/1999/xlink" viewBox="0 0 343.5 252.31"><defs><style>.cls-1{opacity:0.25;}.cls-2{fill:url(#Unbenannter_Verlauf_439);}.cls-3{fill:url(#Unbenannter_Verlauf_439-2);}.cls-4{fill:url(#Unbenannter_Verlauf_464);}.cls-5{fill:url(#Unbenannter_Verlauf_464-2);}.cls-6{opacity:0.9;}.cls-7{fill:#f5f5f5;}</style><linearGradient id="Unbenannter_Verlauf_439" x1="3952.66" y1="164.69" x2="3952.66" y2="85.47" gradientTransform="matrix(-1, 0, 0, 1, 4223.95, 0)" gradientUnits="userSpaceOnUse"><stop offset="0" stop-color="#ccc"/><stop offset="0.29" stop-color="#d0d0d0"/><stop offset="0.56" stop-color="#dbdbdb"/><stop offset="0.82" stop-color="#eee"/><stop offset="1" stop-color="#fff"/></linearGradient><linearGradient id="Unbenannter_Verlauf_439-2" x1="271.29" y1="77.47" x2="271.29" y2="172.69" gradientTransform="matrix(1, 0, 0, 1, 0, 0)" xlink:href="#Unbenannter_Verlauf_439"/><linearGradient id="Unbenannter_Verlauf_464" x1="61.05" y1="206.07" x2="220.88" y2="46.24" gradientUnits="userSpaceOnUse"><stop offset="0" stop-color="#943e00"/><stop offset="0.29" stop-color="#984000"/><stop offset="0.56" stop-color="#a34400"/><stop offset="0.82" stop-color="#b64c00"/><stop offset="1" stop-color="#c75300"/></linearGradient><linearGradient id="Unbenannter_Verlauf_464-2" x1="226.51" y1="40.61" x2="55.42" y2="211.7" xlink:href="#Unbenannter_Verlauf_464"/></defs><title>item</title><g class="cls-1"><path class="cls-2" d="M240.5,164.69h40.75a20.82,20.82,0,0,0,20.83-20.82V106.3a20.82,20.82,0,0,0-20.83-20.83H240.5Z"/><path class="cls-3" d="M281.25,85.47a20.82,20.82,0,0,1,20.83,20.83v37.57a20.82,20.82,0,0,1-20.83,20.82H240.5V85.47h40.75m0-8H232.5v95.22h48.75a28.86,28.86,0,0,0,28.83-28.82V106.3a28.86,28.86,0,0,0-28.83-28.83Z"/></g><rect class="cls-4" x="41.42" y="26.61" width="199.08" height="199.08" rx="67.02"/><path class="cls-5" d="M173.49,26.61a67,67,0,0,1,67,67v65.05a67,67,0,0,1-67,67H108.44a67,67,0,0,1-67-67V93.63a67,67,0,0,1,67-67h65.05m0-8H108.44a75.11,75.11,0,0,0-75,75v65.05a75.1,75.1,0,0,0,75,75h65.05a75.1,75.1,0,0,0,75-75V93.63a75.1,75.1,0,0,0-75-75Z"/><g id="papier" class="cls-6"><path class="cls-7" d="M114.5,128.31c-1,2-1.89,1.15-2.83.16q-12.33-13-24.69-25.88c-2.59-2.7-6.15-3.2-8.85-1.3-3.53,2.48-3.88,7-.69,10.33,5.65,5.95,11.36,11.84,17,17.78,4.7,4.91,9.25,10,14.09,14.72,3.14,3.09,6.68,5.79,10.07,8.62q8.91,7.45,17.89,14.84c4.5,3.69,8.93,7.5,13.67,10.86a21.6,21.6,0,0,0,13.49,3.73,2.94,2.94,0,0,1,2.07.88q13.08,14.73,26.06,29.55a5.31,5.31,0,0,1,1.16,1.51,4.18,4.18,0,0,1-.07,1.64c-.53-.05-1.27.12-1.56-.17-1.19-1.17-2.24-2.47-3.34-3.72q-11.53-13.14-23.12-26.26a3.25,3.25,0,0,0-2.1-1c-7.14-.12-13.16-2.93-18.53-7.42-9.49-7.93-18.88-16-28.54-23.7-7.5-6-13.95-13-20.55-19.91S82.29,120,75.79,113.25c-2.6-2.69-3.63-5.75-2.46-9.31A8.72,8.72,0,0,1,81,97.78a4.61,4.61,0,0,0,.73-.19s.07-.1.23-.32c-.3-.38-.6-.84-1-1.23-2.81-3-5.6-6-8.45-9S68.72,80.86,70,77a9.48,9.48,0,0,1,7.91-6.71c.43-.08.86-.19,1.85-.42-1.37-1.36-2.5-2.43-3.56-3.57a9.5,9.5,0,0,1-1.58-11c2.16-3.91,6.24-6,10.49-5a16.7,16.7,0,0,1,4.83,2.57,20.56,20.56,0,0,1,2.71,2.65c.17-.9.28-1.36.35-1.82a9.53,9.53,0,0,1,6.51-8.1,9.12,9.12,0,0,1,9.94,2.23Q126.7,64.58,144,81.33c.49.48,1,1,1.74,1.74a19.23,19.23,0,0,1,.83-2.2c1.38-2.58,2.76-5.17,4.24-7.69.8-1.37,1.71-1.27,2.85-.1,10,10.16,19.8,20.46,30.07,30.31a37.8,37.8,0,0,1,10.46,16.81c1.64,5.45,3.82,10.74,5.84,16.07a27,27,0,0,1,.72,16.26,3.34,3.34,0,0,0,.81,3.45c7.7,8.49,15.31,17.08,23,25.59,1.14,1.26,1,2-.64,2.83-2.08-2.27-4.21-4.55-6.29-6.88-5.94-6.63-11.82-13.32-17.83-19.89-1.52-1.66-2.12-3.12-1.47-5.44a25.51,25.51,0,0,0-1.09-16.56c-2.9-7.39-5.46-14.91-8.23-22.36a7.84,7.84,0,0,0-1.66-2.74c-7.55-7.68-15.19-15.28-22.73-23-1.2-1.22-1.93-1.25-3.05,0-1.39,1.59-2.93,3-4.47,4.5-.89.84-.9,1.48-.07,2.41,4.78,5.27,9.5,10.59,14.23,15.9a14.85,14.85,0,0,1,1.36,1.61,4.41,4.41,0,0,0,4,2.21c1.68-.06,2.22.68,1.53,2.38-2.57-.06-4.91-.27-6.88-2.62-5.11-6.08-10.41-12-15.79-17.85-3.69-4-7.61-7.8-11.5-11.61-7.52-7.36-15.09-14.65-22.64-22q-6.56-6.36-13.11-12.71a7.35,7.35,0,0,0-8-1.92,6.92,6.92,0,0,0-4.82,5.93,7.24,7.24,0,0,0,2.17,6.3c8.8,9,17.55,18,26.36,26.94,5,5.06,10,10,15,15-.95,2-1.72,1.92-2.88.74Q114.81,81.27,93.49,59.73c-1.62-1.64-3.22-3.31-4.88-4.91-3.21-3.1-7.7-3.13-10.65-.12a7.32,7.32,0,0,0,.33,10.51q23.26,23.39,46.57,46.73c.27.27.7.5.78.83a8.54,8.54,0,0,1,.11,1.76c-.6,0-1.41.17-1.76-.15-1.71-1.54-3.29-3.23-4.92-4.87q-15.15-15.17-30.3-30.35c-1.32-1.31-2.54-2.72-3.88-4-3.43-3.29-7.7-3.41-10.79-.36s-3.06,7.37.17,10.81c7.51,8,15.08,15.91,22.61,23.87q8.52,9,17,18.06C114.1,127.77,114.28,128,114.5,128.31ZM155.91,90c1.68-1.67,3.27-3.22,4.78-4.84a1.32,1.32,0,0,0,0-1.29c-1.77-1.89-3.63-3.7-5.48-5.55C152.78,81.41,153,86.35,155.91,90Zm-3.83-1.33a13.65,13.65,0,0,1,.82-11.82c.14-.25-.18-.76-.29-1.15-.37.14-.93.18-1.07.44A44.86,44.86,0,0,0,148.75,82C147.61,85.32,148.36,86.71,152.08,88.65Z"/><path class="cls-7" d="M83,84c-4,3.91-4,3.91-7.72-.16a5.5,5.5,0,0,1,7.83-7.72C87.18,79.91,87.18,79.91,83,84ZM81.6,82.19c.36-.94,2.79-1.22,1.07-3.13-2.09-2.31-3.9-2.83-5.51-1.46s-1.42,3.29.15,5.07S78.94,84.52,81.6,82.19Z"/><path class="cls-7" d="M110.71,54.83l-7.7,7.7c-1.55-1.56-3.25-3-4.64-4.72a5,5,0,0,1,.54-6.5,5.34,5.34,0,0,1,6.62-1.23,6.12,6.12,0,0,1,1.27.85C108,52.12,109.23,53.35,110.71,54.83Zm-5.56,2.42c2.3-2.36,2.3-2.36.84-3.79-2-1.93-3.93-2.19-5.33-.7s-1,3.39.83,5.2C103,59.43,103,59.43,105.15,57.25Z"/><path class="cls-7" d="M83.34,68c-1.7-2-3.36-3.56-4.67-5.41s-.76-4.69.9-6.37a5.18,5.18,0,0,1,6.51-.94,26.2,26.2,0,0,1,4.28,4.08,1.81,1.81,0,0,1-.19,1.74C88.08,63.29,85.87,65.43,83.34,68Zm2.42-5.6c2.3-2.21,2.3-2.21.88-3.71-1.91-2-3.78-2.31-5.29-.86s-1.29,3.22.43,5S83.46,64.56,85.76,62.35Z"/><path class="cls-7" d="M81.33,113.33a49.27,49.27,0,0,1-3.67-4.61A4.46,4.46,0,0,1,78.93,103a4.37,4.37,0,0,1,5.65,0,18.2,18.2,0,0,1,3,3.22,1.94,1.94,0,0,1-.35,1.82C85.43,109.8,83.52,111.4,81.33,113.33Zm2.13-5c1.64-1.53,1.64-1.55.54-2.75s-2.66-1.52-3.7-.63-1,2.47.23,3.9C82,110.59,82.64,108.9,83.46,108.33Z"/><path class="cls-7" d="M131.44,127.26a7.49,7.49,0,0,1-2.29.55,3.29,3.29,0,0,0-3.65,4.51,11.11,11.11,0,0,1,.09,2.73,4.85,4.85,0,0,1-1.65-7.25A4.69,4.69,0,0,1,131.44,127.26Z"/><path class="cls-7" d="M157.84,104.16c-.64,1-1.2,1.34-2.37.72-2.6-1.37-5.05.26-4.78,3.17.13,1.37-.39,1.86-1.53,2.1a5.28,5.28,0,0,1,8.68-6Z"/><path class="cls-7" d="M142.88,114.17c-.57,1.24-1.27,1.38-2.49,1-2.57-.84-4.52,1.11-4.15,3.81a10.35,10.35,0,0,1-.57,2.86c-2.41-2.61-2.25-5.47-.06-7.61A5,5,0,0,1,142.88,114.17Z"/><path class="cls-7" d="M117.11,147.67a4.42,4.42,0,0,1-1.65-6.11c1.27-2.44,3.83-3.3,6.6-2.16a1.79,1.79,0,0,1-2,1.78c-2.43.1-3.64,2-2.5,4.09A1.59,1.59,0,0,1,117.11,147.67Z"/></g><path class="cls-7" d="M271.1,139.94l8.07-7.1H259.89v-6.32h19.28l-8.07-7.1,3.75-4.28,15,14.43v.22l-15,14.42Z"/></svg>