<svg id="mockUp" xmlns="http://www.w3.org/2000/svg" viewBox="0 0 170.71 197.29"><defs><style>.cls-1{fill:#f5f5f5;}</style></defs><title>scrr</title><g id="Stein"><path class="cls-1" d="M111.07,106l-1.57-1.52,8.6-8.67c1.09-1.1,2.2-2.17,3.26-3.29a7.21,7.21,0,0,0-10-10.36c-2.92,2.71-5.69,5.57-8.5,8.4a16.21,16.21,0,0,0-1.29,1.64l-1.89-1.77a14.29,14.29,0,0,1,.92-1.11l10.87-10.82c3.26-3.26,3.42-7.61.39-10.6s-7.38-2.92-10.61.34c-3.52,3.54-7,7.08-10.5,10.68-1.14,1.2-2,1.6-3.11-.36l4.68-4.81c.83-.85,1.67-1.69,2.48-2.56A7.23,7.23,0,0,0,84.56,61c-3,2.86-5.79,6-8.85,8.79C69.49,75.44,63.15,81,56.76,86.7l-1.52-1.76,1.46-1.8c-1.77.22-2.93.68-3.78,2C47.71,93.48,42.41,101.73,37.2,110A12.73,12.73,0,0,0,36,122.13a2.76,2.76,0,0,1-.75,3.41c-7.17,7.53-14.26,15.14-21.37,22.74-.32.34-.57.76-1,1.32l-1.82-1.94c3.27-3.53,6.45-7,9.64-10.4,3.94-4.22,7.87-8.44,11.85-12.61a2.53,2.53,0,0,0,.71-2.84,15.66,15.66,0,0,1,2-13.46c5.26-8.28,10.46-16.59,15.78-24.83a5.3,5.3,0,0,1,2.8-2.17,31.92,31.92,0,0,0,15.3-8.93C73.36,68.18,77.76,64.17,82,60c3.08-3.09,6.58-4.46,10.82-3,4,1.4,6.09,4.35,6.53,8.53a2.7,2.7,0,0,0,.27.61c4.26-3.41,8.78-4.11,13.19-.65,4,3.13,4.41,7.36,2.62,12.14,4.67.33,8.37,2.12,9.92,6.74s-.15,8.36-3.86,11.61c.79.23,1.26.39,1.74.52,6.86,1.81,9.18,9.64,4.2,14.72q-8,8.13-16.37,15.9c-7,6.47-14.13,12.72-21.17,19.12a23.39,23.39,0,0,1-17.56,6.46,3.79,3.79,0,0,0-3.35,1.48Q57.5,166.9,46,179.57c-.32.35-.61.72-1.21,1.45l-1.51-2.14,7.84-8.61q8.64-9.5,17.27-19a2.85,2.85,0,0,1,2.76-1.06A19.88,19.88,0,0,0,87,145.36c13-11.73,26.45-23,38.54-35.78a6.25,6.25,0,0,0-8.46-9.21C115.09,102.13,113.2,104,111.07,106Z"/><path class="cls-1" d="M91.24,95.78C90,95.07,89.5,94.41,90,92.9A3.52,3.52,0,0,0,89.09,90a3.21,3.21,0,0,0-2.84-.7c-1.52.61-2.16-.07-2.88-1.06a5.41,5.41,0,0,1,7.4-.2C93,90,93.23,93.11,91.24,95.78Z"/><path class="cls-1" d="M70.32,78a5.43,5.43,0,0,1,8.61,6.61A1.9,1.9,0,0,1,77.47,82a3.06,3.06,0,0,0-4.24-3.32C71.63,79.33,71.63,79.33,70.32,78Z"/><path class="cls-1" d="M101.37,109.05c-1.17-.82-1.53-1.56-.79-3a2.94,2.94,0,0,0-3.29-4.14,2,2,0,0,1-2.64-1.48,5.37,5.37,0,0,1,7.43,1A5.58,5.58,0,0,1,101.37,109.05Z"/><path class="cls-1" d="M104.3,113.27c2.62-1.24,5.15-.52,6.43,1.71a4.65,4.65,0,0,1-1.43,6.28c-.77-.84-1.39-1.54-.59-2.89a2.22,2.22,0,0,0-2-3.29C105.12,115.25,104.78,114.42,104.3,113.27Z"/></g></svg>