<svg id="mockUp" xmlns="http://www.w3.org/2000/svg" viewBox="0 0 170.71 197.29"><defs><style>.cls-1{opacity:0.9;}.cls-2{fill:#f5f5f5;}</style></defs><title>scrr</title><g id="papier" class="cls-1"><path class="cls-2" d="M87.44,74.26c-2-1-1.15-1.89-.15-2.83q12.94-12.33,25.87-24.69c2.71-2.59,3.2-6.15,1.31-8.85-2.49-3.53-7-3.88-10.34-.69-5.95,5.65-11.84,11.36-17.77,17-4.91,4.7-10,9.25-14.73,14.09C68.54,71.46,65.84,75,63,78.39c-5,5.94-9.93,11.89-14.84,17.89-3.69,4.5-7.49,8.93-10.86,13.67a21.6,21.6,0,0,0-3.72,13.49,3,3,0,0,1-.89,2.07Q18,138.59,3.15,151.57a5.31,5.31,0,0,1-1.51,1.16A4.13,4.13,0,0,1,0,152.66c0-.53-.12-1.27.17-1.57,1.16-1.18,2.47-2.23,3.72-3.33Q17,136.21,30.15,124.64a3.25,3.25,0,0,0,1-2.1c.13-7.14,2.94-13.16,7.43-18.53,7.92-9.49,16-18.88,23.69-28.54,6-7.5,13-13.95,19.91-20.55S95.77,42.05,102.5,35.55c2.69-2.6,5.76-3.63,9.31-2.46A8.69,8.69,0,0,1,118,40.71a3.76,3.76,0,0,0,.2.73c0,.05.09.07.31.23.38-.3.84-.6,1.24-1,3-2.81,6-5.6,8.94-8.45s6.23-3.77,10.06-2.52a9.48,9.48,0,0,1,6.71,7.91c.08.43.2.86.42,1.85,1.37-1.37,2.44-2.5,3.57-3.56a9.5,9.5,0,0,1,11-1.58,9.36,9.36,0,0,1,5,10.49,17,17,0,0,1-2.57,4.83,21.38,21.38,0,0,1-2.66,2.71c.9.17,1.36.28,1.82.35a9.52,9.52,0,0,1,8.1,6.51,9.1,9.1,0,0,1-2.22,9.94q-16.72,17.28-33.46,34.53c-.48.49-1,1-1.75,1.74a20.28,20.28,0,0,1,2.21.83c2.58,1.38,5.16,2.76,7.68,4.24,1.37.8,1.28,1.71.11,2.85-10.17,10-20.47,19.8-30.31,30.07A37.77,37.77,0,0,1,95.55,153.9c-5.45,1.64-10.74,3.82-16.07,5.84a27,27,0,0,1-16.26.72,3.32,3.32,0,0,0-3.44.81c-8.5,7.7-17.08,15.31-25.59,23-1.27,1.14-2,1-2.83-.64,2.27-2.08,4.55-4.21,6.87-6.29,6.63-5.94,13.32-11.83,19.89-17.83,1.66-1.52,3.12-2.12,5.44-1.48A25.44,25.44,0,0,0,80.12,157c7.39-2.9,14.92-5.46,22.36-8.23a7.89,7.89,0,0,0,2.75-1.66c7.67-7.55,15.27-15.19,23-22.73,1.23-1.2,1.26-1.93,0-3-1.59-1.39-3-2.93-4.5-4.47-.84-.89-1.48-.9-2.4-.07-5.28,4.77-10.6,9.49-15.9,14.23a16,16,0,0,1-1.62,1.36,4.41,4.41,0,0,0-2.21,4c.07,1.67-.68,2.22-2.38,1.53.07-2.58.27-4.91,2.62-6.88,6.09-5.11,12-10.41,17.85-15.79,4-3.69,7.81-7.61,11.62-11.5,7.35-7.52,14.64-15.09,22-22.64q6.36-6.55,12.72-13.11a7.37,7.37,0,0,0,1.92-8,6.93,6.93,0,0,0-5.94-4.82,7.23,7.23,0,0,0-6.29,2.17c-9,8.8-18,17.55-27,26.36-5.06,5-10,10-15,15-2-1-1.93-1.72-.75-2.88Q134.5,74.55,156,53.25c1.64-1.62,3.31-3.22,4.91-4.88,3.11-3.21,3.14-7.7.12-10.65s-7.41-2.75-10.51.33q-23.37,23.27-46.73,46.57c-.27.27-.5.7-.82.78a8.64,8.64,0,0,1-1.77.11c0-.6-.17-1.41.15-1.76,1.55-1.71,3.24-3.29,4.87-4.92l30.35-30.31c1.31-1.31,2.72-2.53,4-3.87,3.28-3.43,3.4-7.7.36-10.79s-7.38-3.07-10.81.17c-8,7.51-15.92,15.08-23.88,22.61q-9,8.52-18.06,17A9,9,0,0,1,87.44,74.26Zm38.34,41.41c1.67,1.68,3.21,3.27,4.83,4.78a1.32,1.32,0,0,0,1.29,0c1.89-1.78,3.7-3.63,5.55-5.48C134.34,112.54,129.4,112.79,125.78,115.67Zm1.33-3.83a13.62,13.62,0,0,1,11.82.82c.25.14.75-.18,1.14-.29-.14-.37-.18-.93-.44-1.07a45.36,45.36,0,0,0-5.85-2.79C130.44,107.37,129.05,108.12,127.11,111.84Z"/><path class="cls-2" d="M131.78,42.77c-3.91-4-3.91-4,.17-7.72a5.49,5.49,0,0,1,7.71,7.83C135.84,46.94,135.84,46.94,131.78,42.77Zm1.79-1.41c.93.36,1.22,2.79,3.13,1.07,2.3-2.09,2.82-3.91,1.45-5.52s-3.29-1.41-5.07.16S131.23,38.7,133.57,41.36Z"/><path class="cls-2" d="M160.93,70.47l-7.7-7.7a64.44,64.44,0,0,1,4.71-4.64,5,5,0,0,1,6.51.54,5.35,5.35,0,0,1,1.22,6.62,6,6,0,0,1-.85,1.27C163.63,67.79,162.41,69,160.93,70.47Zm-2.42-5.56c2.36,2.3,2.36,2.3,3.79.84,1.93-2,2.18-3.93.69-5.33s-3.38-1-5.2.83C156.32,62.77,156.32,62.77,158.51,64.91Z"/><path class="cls-2" d="M147.8,43.1c1.95-1.7,3.56-3.36,5.42-4.67s4.69-.76,6.36.9a5.16,5.16,0,0,1,.94,6.51,26.18,26.18,0,0,1-4.08,4.28,1.81,1.81,0,0,1-1.74-.19C152.46,47.84,150.32,45.63,147.8,43.1Zm5.6,2.42c2.21,2.3,2.21,2.3,3.72.88,2-1.91,2.31-3.78.86-5.29s-3.22-1.29-5,.43S151.19,43.22,153.4,45.52Z"/><path class="cls-2" d="M102.42,41.09A50.61,50.61,0,0,1,107,37.42a4.46,4.46,0,0,1,5.68,1.27,4.37,4.37,0,0,1,0,5.65,18.61,18.61,0,0,1-3.23,3,1.94,1.94,0,0,1-1.82-.35C106,45.19,104.35,43.28,102.42,41.09Zm5,2.13c1.53,1.64,1.55,1.64,2.76.54s1.52-2.66.62-3.7-2.47-1-3.89.23C105.16,41.74,106.85,42.4,107.42,43.22Z"/><path class="cls-2" d="M88.5,91.2a7.52,7.52,0,0,1-.56-2.29,3.29,3.29,0,0,0-4.51-3.65,11.54,11.54,0,0,1-2.72.09A4.85,4.85,0,0,1,88,83.69,4.7,4.7,0,0,1,88.5,91.2Z"/><path class="cls-2" d="M111.6,117.6c-1-.64-1.34-1.2-.73-2.37,1.38-2.6-.25-5-3.17-4.78-1.37.13-1.85-.39-2.1-1.53a5.29,5.29,0,0,1,6,8.68Z"/><path class="cls-2" d="M101.59,102.64c-1.24-.57-1.39-1.27-1-2.49.83-2.57-1.12-4.53-3.82-4.15a10.35,10.35,0,0,1-2.86-.57c2.61-2.42,5.47-2.25,7.62-.06A5,5,0,0,1,101.59,102.64Z"/><path class="cls-2" d="M68.08,76.87a4.43,4.43,0,0,1,6.12-1.65c2.44,1.27,3.3,3.83,2.15,6.6a1.79,1.79,0,0,1-1.78-1.95c-.1-2.43-2-3.64-4.09-2.5A1.6,1.6,0,0,1,68.08,76.87Z"/></g></svg>