<svg id="mockUp" xmlns="http://www.w3.org/2000/svg" viewBox="0 0 170.71 197.29"><defs><style>.cls-1{fill:#f5f5f5;}</style></defs><title>scrr</title><g id="Schere"><path class="cls-1" d="M55.48,91.43,54,89.6l6.1-5-.23-.4c-2.66.68-5.44.37-7.6,3.15-6.18,8-12.66,15.7-19.08,23.48-2.84,3.44-3.72,7.15-2.2,11.41a1.71,1.71,0,0,1-.32,1.52Q16.37,137.18,2,150.56a2.55,2.55,0,0,1-.57.27L0,149.25c.6-.61,1.14-1.21,1.73-1.77Q14.29,135.72,26.86,124a3.27,3.27,0,0,0,1.22-3.56,11.7,11.7,0,0,1,2.49-10.32Q41.15,97,51.89,84a6.7,6.7,0,0,1,2.38-1.4,4.17,4.17,0,0,1,1.58-.33c6.63-.27,11.67-3.6,16.74-7.65,8.92-7.13,16.47-15.59,24.46-23.61,9.5-9.53,18.82-19.22,28.25-28.81,4.24-4.33,10.34-4.61,14.29-.73s3.94,10-.27,14.31Q119.19,56.7,99,77.55a2.73,2.73,0,0,0-.5.52c-.26.48-.48,1-.72,1.48.58-.09,1.28,0,1.71-.3,5.72-4,11.41-8,17.1-12Q135.5,54,154.37,40.81c4.78-3.34,10.67-2.35,13.85,2.2s1.94,10.42-2.86,13.71Q140.1,74,114.82,91.25a5.52,5.52,0,0,0-1.48,1.34c6.43-2.46,12.08-2.23,15.29,4.68,2.25,4.82.7,8.62-4.85,13.47a5.19,5.19,0,0,1,1.4.28,8.41,8.41,0,0,1,4.69,7.57,8.57,8.57,0,0,1-4.48,8.08q-22.8,13.26-45.62,26.47a26.12,26.12,0,0,1-16.86,3.18,3.06,3.06,0,0,0-2.85,1q-13.74,13.26-27.54,26.44c-.43.41-.89.78-1.46,1.28l-1.6-1.74,5.65-5.43C43,170.21,51,162.64,58.87,155a3.82,3.82,0,0,1,3.77-1.21,24.12,24.12,0,0,0,16.77-3.23q22-12.82,44-25.55c4.86-2.8,5.43-8.76,1-11.59a7.25,7.25,0,0,0-6.44-.56l-1-2c2-1.06,3.93-2,5.81-3.05a7.44,7.44,0,0,0-5.61-13.76c-1.55.45-3.09,1-4.61,1.53-3.4,1.22-3.4,1.24-5.46-2.08l11.41-7.78,45-30.73c3.16-2.16,4.42-4.93,3.71-8.1a7.23,7.23,0,0,0-6.14-5.56A7.74,7.74,0,0,0,155.45,43q-22.89,16.1-45.81,32.15c-3.39,2.38-6.8,4.72-10.14,7.17-1.1.81-1.83.76-2.71-.26S95,80.33,93.94,79.3l5.76-6q18.94-19.63,37.89-39.26c3.8-3.94,3.2-9.45-1.28-11.92-3.05-1.68-6.34-1.14-9,1.58Q114.63,36.64,102,49.58c-6.51,6.65-12.8,13.53-19.58,19.88-5.24,4.91-11.09,9.18-16.68,13.71C62.38,85.89,59,88.59,55.48,91.43Z"/><path class="cls-1" d="M132.68,36.54l-8.07-7.76c1.58-1.6,3-3.19,4.53-4.53a5.51,5.51,0,0,1,7.22.36,5.61,5.61,0,0,1,.56,7.36C135.65,33.54,134.18,34.94,132.68,36.54ZM128,28.71l4.59,4.37c1.4-1.73,3.65-2.8,2.79-5.24A4.05,4.05,0,0,0,133,25.62C130.56,25.06,129.67,27.31,128,28.71Z"/><path class="cls-1" d="M152.14,47.2c1.89-1.23,3.57-2.48,5.39-3.48a5.32,5.32,0,0,1,6.85,1.68,5.44,5.44,0,0,1-.67,7.32c-1.59,1.33-3.39,2.41-5.25,3.71Zm6.94,5.86c1.84-1.37,4.16-2.06,3.86-4.59a3.91,3.91,0,0,0-2-2.63c-2.21-1-3.56.92-5.35,2Z"/><path class="cls-1" d="M106.62,113.7c-1-1-1.27-1.75-.43-3a3,3,0,0,0-2.63-4.66,1.88,1.88,0,0,1-2.32-1.71,5.08,5.08,0,0,1,7,1.74C109.87,108.62,109.27,111.66,106.62,113.7Z"/><path class="cls-1" d="M98.34,98.85c-.87-.76-1.55-1.36-.82-2.81a3,3,0,0,0-3.44-4.23,1.82,1.82,0,0,1-2.41-1.36,5.16,5.16,0,0,1,7.21.71A5.28,5.28,0,0,1,98.34,98.85Z"/><path class="cls-1" d="M86.26,85.69A2,2,0,0,1,85,82.92a3,3,0,0,0-4-3.58c-1.37.59-2,.08-2.66-.84,1.44-2.09,4.68-2.43,6.94-.74A5.39,5.39,0,0,1,86.26,85.69Z"/><path class="cls-1" d="M112.36,127.57c-.86-1-1.08-1.76-.2-2.89,1.28-1.66.44-3.64-1.59-4.19-1.57-.42-1.57-.42-2-2a4.51,4.51,0,0,1,5.93,2C115.91,123.17,115.1,125.93,112.36,127.57Z"/></g></svg>