<svg id="mockUp" xmlns="http://www.w3.org/2000/svg" viewBox="0 0 170.71 197.29"><defs><style>.cls-1{opacity:0.9;}.cls-2{fill:#f5f5f5;}</style></defs><title>scrr</title><g id="papier" class="cls-1"><path class="cls-2" d="M82.51,73.65q-9-8.5-18.06-17c-8-7.53-15.89-15.1-23.87-22.61-3.44-3.24-7.77-3.25-10.82-.17s-2.92,7.36.37,10.79c1.28,1.34,2.69,2.56,4,3.87L64.48,78.83c1.64,1.63,3.32,3.21,4.87,4.92.32.35.12,1.16.15,1.76a8.64,8.64,0,0,1-1.77-.11c-.32-.08-.55-.51-.82-.78Q43.56,61.33,20.18,38.05a7.32,7.32,0,0,0-10.51-.33c-3,3-3,7.44.12,10.65,1.6,1.66,3.27,3.26,4.91,4.88Q36.25,74.54,57.81,95.82C59,97,59,97.75,57.06,98.7c-5-5-10-10-15-15-9-8.81-18-17.56-26.95-26.36a7.22,7.22,0,0,0-6.29-2.17A6.92,6.92,0,0,0,2.88,60a7.35,7.35,0,0,0,1.92,8q6.35,6.57,12.71,13.11c7.32,7.55,14.61,15.12,22,22.64,3.81,3.89,7.61,7.81,11.61,11.5,5.84,5.38,11.77,10.68,17.85,15.79,2.35,2,2.56,4.3,2.62,6.88-1.7.69-2.45.14-2.38-1.53a4.41,4.41,0,0,0-2.21-4A14.85,14.85,0,0,1,65.36,131c-5.31-4.74-10.63-9.46-15.9-14.23-.93-.83-1.57-.82-2.41.07-1.45,1.54-2.91,3.08-4.5,4.47-1.28,1.12-1.24,1.85,0,3,7.69,7.54,15.29,15.18,23,22.73a7.75,7.75,0,0,0,2.74,1.66c7.45,2.77,15,5.33,22.36,8.23A25.44,25.44,0,0,0,107.16,158c2.32-.64,3.78,0,5.44,1.48,6.57,6,13.26,11.89,19.89,17.83,2.32,2.08,4.61,4.21,6.88,6.29-.8,1.68-1.57,1.78-2.83.64-8.51-7.7-17.1-15.31-25.59-23a3.34,3.34,0,0,0-3.45-.81,27.05,27.05,0,0,1-16.26-.72c-5.33-2-10.62-4.2-16.07-5.84a37.74,37.74,0,0,1-16.81-10.46c-9.85-10.27-20.15-20.1-30.31-30.07-1.18-1.14-1.27-2.05.1-2.85,2.52-1.48,5.11-2.86,7.68-4.24a20.28,20.28,0,0,1,2.21-.83c-.77-.77-1.26-1.25-1.74-1.74Q19.56,86.45,2.84,69.18A9.12,9.12,0,0,1,.61,59.24a9.53,9.53,0,0,1,8.1-6.51c.46-.07.92-.18,1.82-.35a20.56,20.56,0,0,1-2.65-2.71,16.7,16.7,0,0,1-2.57-4.83c-1-4.25,1.05-8.34,5-10.49a9.49,9.49,0,0,1,11,1.58c1.14,1.06,2.21,2.19,3.57,3.56.23-1,.34-1.42.42-1.85A9.48,9.48,0,0,1,32,29.73c3.83-1.25,7.17-.27,10.06,2.52S48,37.89,51,40.7c.39.37.85.67,1.23,1,.22-.16.3-.18.32-.23a4.61,4.61,0,0,0,.19-.73,8.71,8.71,0,0,1,6.16-7.62c3.56-1.17,6.62-.14,9.31,2.46,6.74,6.5,13.56,12.9,20.32,19.37s13.92,13,19.91,20.55c7.72,9.66,15.77,19,23.7,28.54,4.49,5.37,7.29,11.39,7.42,18.53a3.25,3.25,0,0,0,1,2.1q13.08,11.61,26.26,23.12c1.25,1.1,2.55,2.15,3.72,3.33.29.3.12,1,.16,1.57a4.13,4.13,0,0,1-1.63.07,5.31,5.31,0,0,1-1.51-1.16q-14.79-13-29.55-26.06a3,3,0,0,1-.89-2.07A21.53,21.53,0,0,0,133.41,110c-3.36-4.74-7.17-9.17-10.86-13.67q-7.36-9-14.84-17.89c-2.83-3.4-5.53-6.93-8.62-10.07-4.76-4.84-9.81-9.39-14.73-14.09-5.93-5.67-11.82-11.38-17.77-17-3.36-3.19-7.85-2.84-10.33.69-1.9,2.7-1.41,6.26,1.3,8.85Q70.47,59.1,83.44,71.43c1,.94,1.84,1.79-.16,2.83A9,9,0,0,1,82.51,73.65ZM33.27,115c1.85,1.85,3.66,3.7,5.55,5.48a1.32,1.32,0,0,0,1.29,0c1.62-1.51,3.16-3.1,4.84-4.78C41.32,112.79,36.38,112.54,33.27,115ZM37,108.51a44.86,44.86,0,0,0-5.86,2.79c-.26.14-.3.7-.44,1.07.39.11.9.43,1.14.29a13.64,13.64,0,0,1,11.83-.82C41.68,108.12,40.29,107.37,37,108.51Z"/><path class="cls-2" d="M31.06,42.88a5.49,5.49,0,0,1,7.71-7.83c4.08,3.72,4.08,3.72.17,7.72C34.88,46.94,34.88,46.94,31.06,42.88Zm6.58-5.81c-1.78-1.57-3.81-1.63-5.07-.16s-.85,3.43,1.46,5.52c1.91,1.72,2.19-.71,3.12-1.07C39.49,38.7,39.49,38.7,37.64,37.07Z"/><path class="cls-2" d="M5.9,66.56a6,6,0,0,1-.85-1.27,5.35,5.35,0,0,1,1.22-6.62,5,5,0,0,1,6.51-.54,64.44,64.44,0,0,1,4.71,4.64L9.8,70.47C8.32,69,7.09,67.79,5.9,66.56Zm7-5.31c-1.81-1.86-3.77-2.18-5.2-.83s-1.23,3.36.7,5.33c1.43,1.46,1.43,1.46,3.78-.84C14.4,62.77,14.4,62.77,12.93,61.25Z"/><path class="cls-2" d="M16,49.93a1.81,1.81,0,0,1-1.74.19,26.61,26.61,0,0,1-4.08-4.28,5.18,5.18,0,0,1,.94-6.51c1.68-1.66,4.5-2.21,6.37-.9s3.46,3,5.41,4.67C20.4,45.63,18.26,47.84,16,49.93Zm1.75-8.39c-1.81-1.72-3.63-1.88-5-.43s-1.15,3.38.86,5.29c1.5,1.42,1.5,1.42,3.71-.88S19.53,43.22,17.77,41.54Z"/><path class="cls-2" d="M63,47a1.94,1.94,0,0,1-1.82.35,18.2,18.2,0,0,1-3.22-3,4.37,4.37,0,0,1,0-5.65,4.46,4.46,0,0,1,5.68-1.27,49.27,49.27,0,0,1,4.61,3.67C66.37,43.28,64.77,45.19,63,47Zm.79-6.68c-1.43-1.18-3-1.34-3.9-.23s-.64,2.54.62,3.7,1.23,1.1,2.76-.54C63.87,42.4,65.56,41.74,63.82,40.29Z"/><path class="cls-2" d="M82.22,91.2a7.52,7.52,0,0,0,.56-2.29,3.29,3.29,0,0,1,4.51-3.65,11.63,11.63,0,0,0,2.73.09,4.86,4.86,0,0,0-7.25-1.66A4.7,4.7,0,0,0,82.22,91.2Z"/><path class="cls-2" d="M59.13,117.6c1-.64,1.33-1.2.72-2.37-1.38-2.6.25-5,3.17-4.78,1.37.13,1.86-.39,2.1-1.53a5.28,5.28,0,0,0-6,8.68Z"/><path class="cls-2" d="M69.13,102.64c1.25-.57,1.39-1.27,1-2.49-.84-2.57,1.11-4.53,3.81-4.15a10.35,10.35,0,0,0,2.86-.57c-2.61-2.42-5.47-2.25-7.61-.06A5,5,0,0,0,69.13,102.64Z"/><path class="cls-2" d="M102.64,76.87a4.42,4.42,0,0,0-6.11-1.65c-2.44,1.27-3.31,3.83-2.16,6.6a1.79,1.79,0,0,0,1.78-1.95c.1-2.43,2-3.64,4.09-2.5A1.59,1.59,0,0,0,102.64,76.87Z"/></g></svg>