<svg id="mockUp" xmlns="http://www.w3.org/2000/svg" viewBox="0 0 170.71 197.29"><defs><style>.cls-1{fill:#f5f5f5;}</style></defs><title>scrr</title><g id="Schere"><path class="cls-1" d="M115.25,91.43l1.49-1.83-6.1-5,.23-.4c2.66.68,5.45.37,7.6,3.15,6.18,8,12.66,15.7,19.08,23.48,2.84,3.44,3.73,7.15,2.2,11.41a1.71,1.71,0,0,0,.32,1.52q14.28,13.47,28.64,26.85a2.55,2.55,0,0,0,.57.27l1.44-1.58c-.59-.61-1.14-1.21-1.73-1.77Q156.44,135.72,143.86,124a3.27,3.27,0,0,1-1.22-3.56,11.7,11.7,0,0,0-2.49-10.32Q129.57,97,118.83,84a6.65,6.65,0,0,0-2.37-1.4,4.25,4.25,0,0,0-1.58-.33c-6.64-.27-11.68-3.6-16.75-7.65-8.92-7.13-16.46-15.59-24.46-23.61-9.49-9.53-18.82-19.22-28.24-28.81-4.25-4.33-10.35-4.61-14.3-.73s-3.94,10,.27,14.31Q51.53,56.7,71.68,77.55a2.46,2.46,0,0,1,.5.52c.26.48.48,1,.72,1.48-.58-.09-1.28,0-1.71-.3-5.72-4-11.4-8-17.1-12Q35.22,54,16.35,40.81C11.57,37.47,5.68,38.46,2.5,43S.56,53.43,5.36,56.72Q30.62,74,55.91,91.25a5.49,5.49,0,0,1,1.47,1.34C51,90.13,45.31,90.36,42.09,97.27c-2.24,4.82-.7,8.62,4.85,13.47a5.19,5.19,0,0,0-1.4.28,8.41,8.41,0,0,0-4.69,7.57,8.56,8.56,0,0,0,4.49,8.08Q68.13,139.93,91,153.14a26.12,26.12,0,0,0,16.86,3.18,3.06,3.06,0,0,1,2.85,1q13.74,13.26,27.55,26.44c.42.41.88.78,1.46,1.28l1.59-1.74c-1.94-1.87-3.79-3.66-5.65-5.43-7.92-7.61-15.87-15.18-23.75-22.84a3.84,3.84,0,0,0-3.78-1.21,24.13,24.13,0,0,1-16.77-3.23q-22-12.82-44-25.55c-4.86-2.8-5.43-8.76-1-11.59a7.22,7.22,0,0,1,6.43-.56l1-2c-2-1.06-3.93-2-5.82-3.05a7.44,7.44,0,0,1,5.61-13.76c1.55.45,3.09,1,4.61,1.53,3.4,1.22,3.4,1.24,5.46-2.08L52.17,85.73,7.13,55C4,52.84,2.71,50.07,3.42,46.9a7.23,7.23,0,0,1,6.14-5.56A7.74,7.74,0,0,1,15.27,43q22.9,16.1,45.81,32.15c3.39,2.38,6.8,4.72,10.14,7.17,1.1.81,1.84.76,2.71-.26s1.79-1.76,2.85-2.79l-5.76-6Q52.08,53.69,33.13,34.06c-3.8-3.94-3.19-9.45,1.28-11.92,3.06-1.68,6.34-1.14,9,1.58Q56.11,36.64,68.75,49.58c6.5,6.65,12.79,13.53,19.58,19.88,5.24,4.91,11.08,9.18,16.67,13.71C108.35,85.89,111.72,88.59,115.25,91.43Z"/><path class="cls-1" d="M33.8,32a5.61,5.61,0,0,1,.56-7.36,5.52,5.52,0,0,1,7.23-.36c1.57,1.34,2.94,2.93,4.52,4.53L38,36.54C36.55,34.94,35.07,33.54,33.8,32Zm4-6.35a4,4,0,0,0-2.47,2.22c-.86,2.44,1.39,3.51,2.78,5.24l4.59-4.37C41.05,27.31,40.17,25.06,37.78,25.62Z"/><path class="cls-1" d="M12.26,56.43C10.4,55.13,8.6,54.05,7,52.72a5.44,5.44,0,0,1-.68-7.32,5.32,5.32,0,0,1,6.85-1.68c1.82,1,3.5,2.25,5.39,3.48Zm2.88-8.56c-1.8-1.11-3.14-3-5.36-2a3.91,3.91,0,0,0-2,2.63c-.3,2.53,2,3.22,3.87,4.59Z"/><path class="cls-1" d="M64.1,113.7c1-1,1.27-1.75.43-3A3,3,0,0,1,67.16,106a1.88,1.88,0,0,0,2.32-1.71,5.06,5.06,0,0,0-7,1.74C60.85,108.62,61.45,111.66,64.1,113.7Z"/><path class="cls-1" d="M72.38,98.85c.87-.76,1.55-1.36.82-2.81a3,3,0,0,1,3.44-4.23,1.83,1.83,0,0,0,2.42-1.36,5.17,5.17,0,0,0-7.22.71A5.29,5.29,0,0,0,72.38,98.85Z"/><path class="cls-1" d="M84.46,85.69a2,2,0,0,0,1.24-2.77,3,3,0,0,1,4-3.58c1.37.59,2,.08,2.66-.84-1.44-2.09-4.68-2.43-6.93-.74A5.38,5.38,0,0,0,84.46,85.69Z"/><path class="cls-1" d="M58.36,127.57c.86-1,1.08-1.76.2-2.89-1.28-1.66-.44-3.64,1.59-4.19,1.57-.42,1.57-.42,2-2a4.5,4.5,0,0,0-5.92,2C54.82,123.17,55.62,125.93,58.36,127.57Z"/></g></svg>