<svg id="mockUp" xmlns="http://www.w3.org/2000/svg" viewBox="0 0 170.71 197.29"><defs><style>.cls-1{fill:#f5f5f5;}</style></defs><title>scrr</title><g id="Stein"><path class="cls-1" d="M59.66,106l1.57-1.52-8.6-8.67c-1.09-1.1-2.21-2.17-3.27-3.29a7.22,7.22,0,0,1,10-10.36c2.91,2.71,5.68,5.57,8.49,8.4a16.21,16.21,0,0,1,1.29,1.64l1.89-1.77a14.29,14.29,0,0,0-.92-1.11q-5.41-5.41-10.86-10.82c-3.27-3.26-3.43-7.61-.39-10.6s7.37-2.92,10.61.34C73,71.8,76.55,75.34,80,78.94c1.15,1.2,2,1.6,3.11-.36l-4.67-4.81c-.83-.85-1.68-1.69-2.49-2.56A7.24,7.24,0,0,1,86.17,61c3,2.86,5.78,6,8.85,8.79,6.21,5.69,12.55,11.24,19,17l1.51-1.76L114,83.14c1.76.22,2.92.68,3.77,2,5.21,8.3,10.52,16.55,15.72,24.85a12.74,12.74,0,0,1,1.17,12.1,2.74,2.74,0,0,0,.74,3.41c7.17,7.53,14.26,15.14,21.37,22.74.32.34.57.76,1,1.32l1.82-1.94c-3.27-3.53-6.44-7-9.64-10.4-3.94-4.22-7.87-8.44-11.84-12.61a2.52,2.52,0,0,1-.72-2.84,15.63,15.63,0,0,0-2-13.46c-5.26-8.28-10.46-16.59-15.78-24.83a5.3,5.3,0,0,0-2.8-2.17,31.89,31.89,0,0,1-15.29-8.93C97.36,68.18,93,64.17,88.76,60c-3.08-3.09-6.58-4.46-10.82-3-4,1.4-6.09,4.35-6.53,8.53a2.7,2.7,0,0,1-.27.61C66.88,62.73,62.36,62,58,65.49c-4,3.13-4.41,7.36-2.62,12.14-4.67.33-8.37,2.12-9.92,6.74s.15,8.36,3.86,11.61c-.79.23-1.26.39-1.74.52-6.86,1.81-9.18,9.64-4.19,14.72q8,8.13,16.36,15.9c7,6.47,14.13,12.72,21.17,19.12a23.4,23.4,0,0,0,17.56,6.46,3.81,3.81,0,0,1,3.36,1.48q11.43,12.72,23,25.39c.32.35.61.72,1.22,1.45l1.5-2.14-7.83-8.61q-8.64-9.5-17.28-19a2.85,2.85,0,0,0-2.76-1.06,19.84,19.84,0,0,1-15.89-4.85c-13-11.73-26.46-23-38.54-35.78a6.12,6.12,0,0,1-1.9-5.66,6.23,6.23,0,0,1,10.35-3.55C55.63,102.13,57.52,104,59.66,106Z"/><path class="cls-1" d="M79.48,95.78c1.23-.71,1.74-1.37,1.22-2.88A3.55,3.55,0,0,1,81.63,90a3.23,3.23,0,0,1,2.85-.7c1.51.61,2.15-.07,2.88-1.06A5.41,5.41,0,0,0,80,88C77.73,90,77.49,93.11,79.48,95.78Z"/><path class="cls-1" d="M100.4,78a5.43,5.43,0,0,0-8.61,6.61A1.9,1.9,0,0,0,93.25,82a3.06,3.06,0,0,1,4.24-3.32C99.09,79.33,99.09,79.33,100.4,78Z"/><path class="cls-1" d="M69.35,109.05c1.17-.82,1.53-1.56.79-3a2.94,2.94,0,0,1,3.29-4.14,2,2,0,0,0,2.64-1.48,5.37,5.37,0,0,0-7.43,1A5.59,5.59,0,0,0,69.35,109.05Z"/><path class="cls-1" d="M66.43,113.27C63.8,112,61.27,112.75,60,115a4.65,4.65,0,0,0,1.43,6.28c.77-.84,1.39-1.54.6-2.89a2.22,2.22,0,0,1,2-3.29C65.6,115.25,65.94,114.42,66.43,113.27Z"/></g></svg>