<svg id="mockUp" xmlns="http://www.w3.org/2000/svg" viewBox="0 0 302.62 491.8"><defs><style>.cls-1{opacity:0.55;}.cls-2{opacity:0.8;}</style></defs><title>flash</title><g class="cls-1"><path d="M129.13,278.77h-99C35,263.39,39.56,249,44.23,234.62Q81.19,121,118.11,7.4c1.81-5.61,4-7.48,9.13-7.4,39.6.64,79.21.9,118.81,1.3,1.76,0,3.52.27,6.56.53-25.6,60-50.87,119.2-76.76,179.89l125.82,6.92c.32.66.63,1.33.95,2L54.83,491.8l-1.3-.87ZM98.31,410.19l1.84,1.58L271,204.19l-118.4-6.6C178.31,137.25,203.4,78.47,228.79,19a39.94,39.94,0,0,0-4.44-.71c-29.25-.34-58.51-.52-87.76-1.1-5.22-.11-6.83,3-8.41,7.84q-36.93,114-74.06,228c-.81,2.5-1.19,5.2-2,9h99Z"/><path class="cls-2" d="M98.31,410.19l1.84,1.58L271,204.19l-118.4-6.6C178.31,137.25,203.4,78.47,228.79,19a39.94,39.94,0,0,0-4.44-.71c-29.25-.34-58.51-.52-87.76-1.1-5.22-.11-6.83,3-8.41,7.84q-36.93,114-74.06,228c-.81,2.5-1.19,5.2-2,9h99Z"/></g></svg>