<svg id="mockUp" xmlns="http://www.w3.org/2000/svg" xmlns:xlink="http://www.w3.org/1999/xlink" viewBox="0 0 982.11 170.47"><defs><style>.cls-1{fill:none;}.cls-2{opacity:0.2;}.cls-3{fill:url(#Unbenannter_Verlauf_237);}.cls-4{fill:url(#Unbenannter_Verlauf_237-2);}.cls-5{fill:url(#Unbenannter_Verlauf_488);}.cls-6{fill:url(#Unbenannter_Verlauf_488-2);}.cls-7{font-size:54px;}.cls-12,.cls-7{fill:#f5f5f5;font-family:Optimus;}.cls-8{clip-path:url(#clip-path);}.cls-9{opacity:0.15;}.cls-10{fill:url(#Unbenannter_Verlauf_248);}.cls-11{fill:url(#Unbenannter_Verlauf_248-2);}.cls-12{font-size:66px;}</style><linearGradient id="Unbenannter_Verlauf_237" x1="249.03" y1="8" x2="249.03" y2="102.92" gradientUnits="userSpaceOnUse"><stop offset="0" stop-color="#00b7b1"/><stop offset="0.16" stop-color="#00948f"/><stop offset="0.36" stop-color="#009893"/><stop offset="0.54" stop-color="#00a39d"/><stop offset="0.72" stop-color="#00b6af"/><stop offset="0.84" stop-color="#00c7c0"/><stop offset="0.92" stop-color="#00bab3"/><stop offset="1" stop-color="#00a8a2"/></linearGradient><linearGradient id="Unbenannter_Verlauf_237-2" x1="249.03" y1="110.92" x2="249.03" y2="0" xlink:href="#Unbenannter_Verlauf_237"/><linearGradient id="Unbenannter_Verlauf_488" x1="730.75" y1="8" x2="730.75" y2="102.92" gradientUnits="userSpaceOnUse"><stop offset="0" stop-color="#bc3000"/><stop offset="0.16" stop-color="#992700"/><stop offset="0.36" stop-color="#9d2800"/><stop offset="0.54" stop-color="#a82b00"/><stop offset="0.72" stop-color="#bb3100"/><stop offset="0.84" stop-color="#cc3600"/><stop offset="0.92" stop-color="#bf3000"/><stop offset="1" stop-color="#ad2900"/></linearGradient><linearGradient id="Unbenannter_Verlauf_488-2" x1="730.75" y1="110.92" x2="730.75" y2="0" xlink:href="#Unbenannter_Verlauf_488"/><clipPath id="clip-path"><path class="cls-1" d="M924.65,0H55.46a55.46,55.46,0,0,0,0,110.92H924.65A55.46,55.46,0,1,0,924.65,0Z"/></clipPath><linearGradient id="Unbenannter_Verlauf_248" x1="490.06" y1="8" x2="490.06" y2="150.47" gradientUnits="userSpaceOnUse"><stop offset="0" stop-color="#4c4c4c"/><stop offset="0.16" stop-color="#292929"/><stop offset="0.36" stop-color="#2d2d2d"/><stop offset="0.54" stop-color="#383838"/><stop offset="0.72" stop-color="#4b4b4b"/><stop offset="0.84" stop-color="#5c5c5c"/><stop offset="0.92" stop-color="#4f4f4f"/><stop offset="1" stop-color="#3d3d3d"/></linearGradient><linearGradient id="Unbenannter_Verlauf_248-2" x1="490.06" y1="158.47" x2="490.06" y2="0" xlink:href="#Unbenannter_Verlauf_248"/></defs><title>menu</title><g id="spielstand"><path id="Schatten" class="cls-2" d="M924.65,8H55.46a55.46,55.46,0,0,0,0,110.92h314.8A77.22,77.22,0,0,0,443,170.47h94.14a77.23,77.23,0,0,0,72.73-51.55H924.65A55.46,55.46,0,1,0,924.65,8Z"/><g id="namen"><path class="cls-3" d="M490.06,102.92H55.46A47.46,47.46,0,0,1,8,55.46H8A47.46,47.46,0,0,1,55.46,8h434.6Z"/><path class="cls-4" d="M490.06,8v94.92H55.46A47.46,47.46,0,0,1,8,55.46H8A47.46,47.46,0,0,1,55.46,8h434.6m8-8H55.46a55.46,55.46,0,0,0,0,110.92h442.6V0Z"/><path class="cls-5" d="M924.65,102.92H489.4V8H924.65a47.46,47.46,0,0,1,47.46,47.46h0A47.46,47.46,0,0,1,924.65,102.92Z"/><path class="cls-6" d="M924.65,8a47.46,47.46,0,0,1,47.46,47.46h0a47.46,47.46,0,0,1-47.46,47.46H489.4V8H924.65m0-8H481.4V110.92H924.65A55.46,55.46,0,1,0,924.65,0Z"/><text class="cls-7" transform="translate(125.38 70.65)">Player 1</text><text class="cls-7" transform="translate(634.57 70.65)">Player 2</text></g><g id="stand"><g class="cls-8"><path class="cls-9" d="M624.57-1H374.23V81.37a78.19,78.19,0,0,0,78.1,78.1h94.14a78.19,78.19,0,0,0,78.1-78.1V-1Z"/><path class="cls-9" d="M604.57-1H354.23V81.37a78.19,78.19,0,0,0,78.1,78.1h94.14a78.19,78.19,0,0,0,78.1-78.1V-1Z"/></g><path class="cls-10" d="M537.13,150.47H443a69.1,69.1,0,0,1-69.1-69.1V8H606.23V81.37A69.1,69.1,0,0,1,537.13,150.47Z"/><path class="cls-11" d="M606.23,8V81.37a69.1,69.1,0,0,1-69.1,69.1H443a69.1,69.1,0,0,1-69.1-69.1V8H606.23m8-8H365.89V81.37a77.18,77.18,0,0,0,77.1,77.1h94.14a77.19,77.19,0,0,0,77.1-77.1V0Z"/><g id="zahlen"><text class="cls-12" transform="translate(472.42 94.68)">-</text><text class="cls-12" transform="translate(515.62 94.68)">1</text><text class="cls-12" transform="translate(441.88 94.68)">1</text></g></g></g></svg>