<svg id="mockUp" xmlns="http://www.w3.org/2000/svg" xmlns:xlink="http://www.w3.org/1999/xlink" viewBox="0 0 982.11 218.57"><defs><style>.cls-1{fill:none;}.cls-2{opacity:0.2;}.cls-3{fill:url(#Unbenannter_Verlauf_137);}.cls-4{fill:url(#Unbenannter_Verlauf_2);}.cls-5{font-size:30px;}.cls-10,.cls-15,.cls-5{fill:#f5f5f5;font-family:Optimus;}.cls-6{fill:url(#Unbenannter_Verlauf_237);}.cls-7{fill:url(#Unbenannter_Verlauf_237-2);}.cls-8{fill:url(#Unbenannter_Verlauf_287);}.cls-9{fill:url(#Unbenannter_Verlauf_287-2);}.cls-10{font-size:54px;}.cls-11{clip-path:url(#clip-path);}.cls-12{opacity:0.15;}.cls-13{fill:url(#Unbenannter_Verlauf_248);}.cls-14{fill:url(#Unbenannter_Verlauf_248-2);}.cls-15{font-size:66px;}</style><linearGradient id="Unbenannter_Verlauf_137" x1="489.4" y1="8.01" x2="489.4" y2="48.11" gradientUnits="userSpaceOnUse"><stop offset="0" stop-color="#777"/><stop offset="0.15" stop-color="#545454"/><stop offset="0.43" stop-color="#575757"/><stop offset="0.64" stop-color="#616161"/><stop offset="0.83" stop-color="#717171"/><stop offset="1" stop-color="#878787"/><stop offset="1" stop-color="#7a7a7a"/><stop offset="1" stop-color="#686868"/></linearGradient><linearGradient id="Unbenannter_Verlauf_2" x1="489.4" y1="56.11" x2="489.4" y2="0.01" gradientUnits="userSpaceOnUse"><stop offset="0" stop-color="#777"/><stop offset="0.16" stop-color="#545454"/><stop offset="0.36" stop-color="#585858"/><stop offset="0.54" stop-color="#636363"/><stop offset="0.72" stop-color="#767676"/><stop offset="0.84" stop-color="#878787"/><stop offset="0.92" stop-color="#7a7a7a"/><stop offset="1" stop-color="#686868"/></linearGradient><linearGradient id="Unbenannter_Verlauf_237" x1="249.03" y1="56.11" x2="249.03" y2="151.03" gradientUnits="userSpaceOnUse"><stop offset="0" stop-color="#00b7b1"/><stop offset="0.16" stop-color="#00948f"/><stop offset="0.36" stop-color="#009893"/><stop offset="0.54" stop-color="#00a39d"/><stop offset="0.72" stop-color="#00b6af"/><stop offset="0.84" stop-color="#00c7c0"/><stop offset="0.92" stop-color="#00bab3"/><stop offset="1" stop-color="#00a8a2"/></linearGradient><linearGradient id="Unbenannter_Verlauf_237-2" x1="249.03" y1="159.03" x2="249.03" y2="48.11" xlink:href="#Unbenannter_Verlauf_237"/><linearGradient id="Unbenannter_Verlauf_287" x1="730.75" y1="56.11" x2="730.75" y2="151.03" gradientUnits="userSpaceOnUse"><stop offset="0" stop-color="#bc4e29"/><stop offset="0.16" stop-color="#993f21"/><stop offset="0.36" stop-color="#9d4122"/><stop offset="0.54" stop-color="#a84624"/><stop offset="0.72" stop-color="#bb4e28"/><stop offset="0.84" stop-color="#cc562c"/><stop offset="0.92" stop-color="#bf502a"/><stop offset="1" stop-color="#ad4727"/></linearGradient><linearGradient id="Unbenannter_Verlauf_287-2" x1="730.75" y1="159.03" x2="730.75" y2="48.11" xlink:href="#Unbenannter_Verlauf_287"/><clipPath id="clip-path"><path class="cls-1" d="M924.65,48.11H55.46a55.46,55.46,0,0,0,0,110.92H924.65a55.46,55.46,0,1,0,0-110.92Z"/></clipPath><linearGradient id="Unbenannter_Verlauf_248" x1="490.06" y1="56.11" x2="490.06" y2="198.57" gradientUnits="userSpaceOnUse"><stop offset="0" stop-color="#4c4c4c"/><stop offset="0.16" stop-color="#292929"/><stop offset="0.36" stop-color="#2d2d2d"/><stop offset="0.54" stop-color="#383838"/><stop offset="0.72" stop-color="#4b4b4b"/><stop offset="0.84" stop-color="#5c5c5c"/><stop offset="0.92" stop-color="#4f4f4f"/><stop offset="1" stop-color="#3d3d3d"/></linearGradient><linearGradient id="Unbenannter_Verlauf_248-2" x1="490.06" y1="206.57" x2="490.06" y2="48.11" xlink:href="#Unbenannter_Verlauf_248"/></defs><title>menu</title><g id="exoprt"><g id="spielstand"><path id="Schatten" class="cls-2" d="M924.65,56.11H55.46a55.46,55.46,0,0,0,0,110.92h314.8A77.21,77.21,0,0,0,443,218.57h94.14A77.22,77.22,0,0,0,609.86,167H924.65a55.46,55.46,0,1,0,0-110.92Z"/><path class="cls-3" d="M658,48.11H320.83A40.1,40.1,0,0,1,360.93,8H617.86A40.1,40.1,0,0,1,658,48.11Z"/><path class="cls-4" d="M617.86,8A40.1,40.1,0,0,1,658,48.11H320.83A40.1,40.1,0,0,1,360.93,8H617.86m0-8H360.93a48.16,48.16,0,0,0-48.1,48.1v8H666v-8A48.16,48.16,0,0,0,617.86,0Z"/><text class="cls-5" transform="translate(412.9 40.78)">first to 5</text><g id="namen"><path class="cls-6" d="M490.06,151H55.46A47.46,47.46,0,0,1,8,103.57H8A47.46,47.46,0,0,1,55.46,56.11h434.6Z"/><path class="cls-7" d="M490.06,56.11V151H55.46A47.46,47.46,0,0,1,8,103.57H8A47.46,47.46,0,0,1,55.46,56.11h434.6m8-8H55.46a55.46,55.46,0,0,0,0,110.92h442.6V48.11Z"/><path class="cls-8" d="M924.65,151H489.4V56.11H924.65a47.46,47.46,0,0,1,47.46,47.46h0A47.46,47.46,0,0,1,924.65,151Z"/><path class="cls-9" d="M924.65,56.11a47.46,47.46,0,0,1,47.46,47.46h0A47.46,47.46,0,0,1,924.65,151H489.4V56.11H924.65m0-8H481.4V159H924.65a55.46,55.46,0,1,0,0-110.92Z"/><text class="cls-10" transform="translate(345 118.76)" id="player1Name" text-anchor="end">Player 1</text><text class="cls-10" transform="translate(634.57 118.76)" id="player2Name">Player 2</text></g><g id="stand"><g class="cls-11"><path class="cls-12" d="M624.57,47.11H374.23v82.36a78.18,78.18,0,0,0,78.1,78.1h94.14a78.19,78.19,0,0,0,78.1-78.1V47.11Z"/><path class="cls-12" d="M604.57,47.11H354.23v82.36a78.18,78.18,0,0,0,78.1,78.1h94.14a78.19,78.19,0,0,0,78.1-78.1V47.11Z"/></g><path class="cls-13" d="M537.13,198.57H443a69.09,69.09,0,0,1-69.1-69.1V56.11H606.23v73.36A69.1,69.1,0,0,1,537.13,198.57Z"/><path class="cls-14" d="M606.23,56.11v73.36a69.1,69.1,0,0,1-69.1,69.1H443a69.09,69.09,0,0,1-69.1-69.1V56.11H606.23m8-8H365.89v81.36a77.18,77.18,0,0,0,77.1,77.1h94.14a77.18,77.18,0,0,0,77.1-77.1V48.11Z"/><g id="zahlen"><text class="cls-15" transform="translate(472.42 142.79)">-</text><text class="cls-15" transform="translate(515.62 142.79)" id="player2Points">0</text><text class="cls-15" transform="translate(465 94.68)" id="player1Points" text-anchor="end">0</text></g></g></g></g></svg>